M48
; DRILL file {KiCad (5.1.5)-3} date 15/07/2020 06:53:51
; FORMAT={-:-/ absolute / inch / decimal}
; #@! TF.CreationDate,2020-07-15T06:53:51+01:00
; #@! TF.GenerationSoftware,Kicad,Pcbnew,(5.1.5)-3
FMAT,2
INCH
T1C0.0315
T2C0.0394
%
G90
G05
T1
X6.32Y-4.125
X6.82Y-4.125
X4.82Y-4.075
X5.32Y-4.075
X4.82Y-4.375
X5.32Y-4.375
X4.82Y-3.775
X5.32Y-3.775
X6.32Y-3.525
X6.82Y-3.525
X5.1102Y-4.875
X5.2102Y-4.875
X5.3102Y-4.875
X5.4102Y-4.875
X5.47Y-2.975
X5.5102Y-4.875
X5.57Y-2.975
X5.6102Y-4.875
X5.67Y-2.975
X5.7102Y-4.875
X5.77Y-2.975
X5.8102Y-4.875
X5.87Y-2.975
X5.9102Y-4.875
X5.97Y-2.975
X6.0102Y-4.875
X6.07Y-2.975
X6.17Y-2.975
X6.17Y-4.875
X6.27Y-4.875
X6.37Y-2.975
X6.37Y-4.875
X6.47Y-2.975
X6.47Y-4.875
X6.57Y-2.975
X6.57Y-4.875
X6.67Y-2.975
X6.67Y-4.875
X6.77Y-2.975
X6.77Y-4.875
X6.87Y-2.975
X6.87Y-4.875
X4.82Y-3.475
X5.32Y-3.475
X6.32Y-3.825
X6.82Y-3.825
X5.52Y-3.775
X5.52Y-3.875
X5.52Y-3.975
X5.52Y-4.075
X5.52Y-4.175
X6.12Y-3.775
X6.12Y-3.875
X6.12Y-3.975
X6.12Y-4.075
X6.12Y-4.175
X6.32Y-4.425
X6.82Y-4.425
T2
X4.8231Y-3.225
X4.9216Y-3.0281
X5.02Y-3.225
X5.72Y-3.325
X6.0192Y-3.325
T0
M30
