G04 #@! TF.GenerationSoftware,KiCad,Pcbnew,(5.1.5)-3*
G04 #@! TF.CreationDate,2020-07-13T16:19:43+01:00*
G04 #@! TF.ProjectId,MorseSerialArduinoShield,4d6f7273-6553-4657-9269-616c41726475,rev?*
G04 #@! TF.SameCoordinates,Original*
G04 #@! TF.FileFunction,Legend,Top*
G04 #@! TF.FilePolarity,Positive*
%FSLAX46Y46*%
G04 Gerber Fmt 4.6, Leading zero omitted, Abs format (unit mm)*
G04 Created by KiCad (PCBNEW (5.1.5)-3) date 2020-07-13 16:19:43*
%MOMM*%
%LPD*%
G04 APERTURE LIST*
%ADD10C,0.150000*%
%ADD11C,0.120000*%
G04 APERTURE END LIST*
D10*
X158250857Y-80431666D02*
X158727047Y-80431666D01*
X158155619Y-80717380D02*
X158488952Y-79717380D01*
X158822285Y-80717380D01*
X159155619Y-80717380D02*
X159155619Y-80050714D01*
X159155619Y-80241190D02*
X159203238Y-80145952D01*
X159250857Y-80098333D01*
X159346095Y-80050714D01*
X159441333Y-80050714D01*
X160203238Y-80717380D02*
X160203238Y-79717380D01*
X160203238Y-80669761D02*
X160108000Y-80717380D01*
X159917523Y-80717380D01*
X159822285Y-80669761D01*
X159774666Y-80622142D01*
X159727047Y-80526904D01*
X159727047Y-80241190D01*
X159774666Y-80145952D01*
X159822285Y-80098333D01*
X159917523Y-80050714D01*
X160108000Y-80050714D01*
X160203238Y-80098333D01*
X161108000Y-80050714D02*
X161108000Y-80717380D01*
X160679428Y-80050714D02*
X160679428Y-80574523D01*
X160727047Y-80669761D01*
X160822285Y-80717380D01*
X160965142Y-80717380D01*
X161060380Y-80669761D01*
X161108000Y-80622142D01*
X161584190Y-80717380D02*
X161584190Y-80050714D01*
X161584190Y-79717380D02*
X161536571Y-79765000D01*
X161584190Y-79812619D01*
X161631809Y-79765000D01*
X161584190Y-79717380D01*
X161584190Y-79812619D01*
X162060380Y-80050714D02*
X162060380Y-80717380D01*
X162060380Y-80145952D02*
X162108000Y-80098333D01*
X162203238Y-80050714D01*
X162346095Y-80050714D01*
X162441333Y-80098333D01*
X162488952Y-80193571D01*
X162488952Y-80717380D01*
X163108000Y-80717380D02*
X163012761Y-80669761D01*
X162965142Y-80622142D01*
X162917523Y-80526904D01*
X162917523Y-80241190D01*
X162965142Y-80145952D01*
X163012761Y-80098333D01*
X163108000Y-80050714D01*
X163250857Y-80050714D01*
X163346095Y-80098333D01*
X163393714Y-80145952D01*
X163441333Y-80241190D01*
X163441333Y-80526904D01*
X163393714Y-80622142D01*
X163346095Y-80669761D01*
X163250857Y-80717380D01*
X163108000Y-80717380D01*
X164631809Y-80717380D02*
X164631809Y-79717380D01*
X164965142Y-80431666D01*
X165298476Y-79717380D01*
X165298476Y-80717380D01*
X165917523Y-80717380D02*
X165822285Y-80669761D01*
X165774666Y-80622142D01*
X165727047Y-80526904D01*
X165727047Y-80241190D01*
X165774666Y-80145952D01*
X165822285Y-80098333D01*
X165917523Y-80050714D01*
X166060380Y-80050714D01*
X166155619Y-80098333D01*
X166203238Y-80145952D01*
X166250857Y-80241190D01*
X166250857Y-80526904D01*
X166203238Y-80622142D01*
X166155619Y-80669761D01*
X166060380Y-80717380D01*
X165917523Y-80717380D01*
X166679428Y-80717380D02*
X166679428Y-80050714D01*
X166679428Y-80241190D02*
X166727047Y-80145952D01*
X166774666Y-80098333D01*
X166869904Y-80050714D01*
X166965142Y-80050714D01*
X167250857Y-80669761D02*
X167346095Y-80717380D01*
X167536571Y-80717380D01*
X167631809Y-80669761D01*
X167679428Y-80574523D01*
X167679428Y-80526904D01*
X167631809Y-80431666D01*
X167536571Y-80384047D01*
X167393714Y-80384047D01*
X167298476Y-80336428D01*
X167250857Y-80241190D01*
X167250857Y-80193571D01*
X167298476Y-80098333D01*
X167393714Y-80050714D01*
X167536571Y-80050714D01*
X167631809Y-80098333D01*
X168488952Y-80669761D02*
X168393714Y-80717380D01*
X168203238Y-80717380D01*
X168108000Y-80669761D01*
X168060380Y-80574523D01*
X168060380Y-80193571D01*
X168108000Y-80098333D01*
X168203238Y-80050714D01*
X168393714Y-80050714D01*
X168488952Y-80098333D01*
X168536571Y-80193571D01*
X168536571Y-80288809D01*
X168060380Y-80384047D01*
X170298476Y-80622142D02*
X170250857Y-80669761D01*
X170108000Y-80717380D01*
X170012761Y-80717380D01*
X169869904Y-80669761D01*
X169774666Y-80574523D01*
X169727047Y-80479285D01*
X169679428Y-80288809D01*
X169679428Y-80145952D01*
X169727047Y-79955476D01*
X169774666Y-79860238D01*
X169869904Y-79765000D01*
X170012761Y-79717380D01*
X170108000Y-79717380D01*
X170250857Y-79765000D01*
X170298476Y-79812619D01*
X170869904Y-80717380D02*
X170774666Y-80669761D01*
X170727047Y-80622142D01*
X170679428Y-80526904D01*
X170679428Y-80241190D01*
X170727047Y-80145952D01*
X170774666Y-80098333D01*
X170869904Y-80050714D01*
X171012761Y-80050714D01*
X171108000Y-80098333D01*
X171155619Y-80145952D01*
X171203238Y-80241190D01*
X171203238Y-80526904D01*
X171155619Y-80622142D01*
X171108000Y-80669761D01*
X171012761Y-80717380D01*
X170869904Y-80717380D01*
X172060380Y-80717380D02*
X172060380Y-79717380D01*
X172060380Y-80669761D02*
X171965142Y-80717380D01*
X171774666Y-80717380D01*
X171679428Y-80669761D01*
X171631809Y-80622142D01*
X171584190Y-80526904D01*
X171584190Y-80241190D01*
X171631809Y-80145952D01*
X171679428Y-80098333D01*
X171774666Y-80050714D01*
X171965142Y-80050714D01*
X172060380Y-80098333D01*
X172917523Y-80669761D02*
X172822285Y-80717380D01*
X172631809Y-80717380D01*
X172536571Y-80669761D01*
X172488952Y-80574523D01*
X172488952Y-80193571D01*
X172536571Y-80098333D01*
X172631809Y-80050714D01*
X172822285Y-80050714D01*
X172917523Y-80098333D01*
X172965142Y-80193571D01*
X172965142Y-80288809D01*
X172488952Y-80384047D01*
X159560380Y-81843571D02*
X159703238Y-81891190D01*
X159750857Y-81938809D01*
X159798476Y-82034047D01*
X159798476Y-82176904D01*
X159750857Y-82272142D01*
X159703238Y-82319761D01*
X159608000Y-82367380D01*
X159227047Y-82367380D01*
X159227047Y-81367380D01*
X159560380Y-81367380D01*
X159655619Y-81415000D01*
X159703238Y-81462619D01*
X159750857Y-81557857D01*
X159750857Y-81653095D01*
X159703238Y-81748333D01*
X159655619Y-81795952D01*
X159560380Y-81843571D01*
X159227047Y-81843571D01*
X160608000Y-82319761D02*
X160512761Y-82367380D01*
X160322285Y-82367380D01*
X160227047Y-82319761D01*
X160179428Y-82224523D01*
X160179428Y-81843571D01*
X160227047Y-81748333D01*
X160322285Y-81700714D01*
X160512761Y-81700714D01*
X160608000Y-81748333D01*
X160655619Y-81843571D01*
X160655619Y-81938809D01*
X160179428Y-82034047D01*
X161465142Y-82319761D02*
X161369904Y-82367380D01*
X161179428Y-82367380D01*
X161084190Y-82319761D01*
X161036571Y-82224523D01*
X161036571Y-81843571D01*
X161084190Y-81748333D01*
X161179428Y-81700714D01*
X161369904Y-81700714D01*
X161465142Y-81748333D01*
X161512761Y-81843571D01*
X161512761Y-81938809D01*
X161036571Y-82034047D01*
X161941333Y-81700714D02*
X161941333Y-82700714D01*
X161941333Y-81748333D02*
X162036571Y-81700714D01*
X162227047Y-81700714D01*
X162322285Y-81748333D01*
X162369904Y-81795952D01*
X162417523Y-81891190D01*
X162417523Y-82176904D01*
X162369904Y-82272142D01*
X162322285Y-82319761D01*
X162227047Y-82367380D01*
X162036571Y-82367380D01*
X161941333Y-82319761D01*
X164036571Y-82367380D02*
X164036571Y-81843571D01*
X163988952Y-81748333D01*
X163893714Y-81700714D01*
X163703238Y-81700714D01*
X163608000Y-81748333D01*
X164036571Y-82319761D02*
X163941333Y-82367380D01*
X163703238Y-82367380D01*
X163608000Y-82319761D01*
X163560380Y-82224523D01*
X163560380Y-82129285D01*
X163608000Y-82034047D01*
X163703238Y-81986428D01*
X163941333Y-81986428D01*
X164036571Y-81938809D01*
X164512761Y-81700714D02*
X164512761Y-82367380D01*
X164512761Y-81795952D02*
X164560380Y-81748333D01*
X164655619Y-81700714D01*
X164798476Y-81700714D01*
X164893714Y-81748333D01*
X164941333Y-81843571D01*
X164941333Y-82367380D01*
X165846095Y-82367380D02*
X165846095Y-81367380D01*
X165846095Y-82319761D02*
X165750857Y-82367380D01*
X165560380Y-82367380D01*
X165465142Y-82319761D01*
X165417523Y-82272142D01*
X165369904Y-82176904D01*
X165369904Y-81891190D01*
X165417523Y-81795952D01*
X165465142Y-81748333D01*
X165560380Y-81700714D01*
X165750857Y-81700714D01*
X165846095Y-81748333D01*
X167084190Y-82367380D02*
X167084190Y-81367380D01*
X167322285Y-81367380D01*
X167465142Y-81415000D01*
X167560380Y-81510238D01*
X167608000Y-81605476D01*
X167655619Y-81795952D01*
X167655619Y-81938809D01*
X167608000Y-82129285D01*
X167560380Y-82224523D01*
X167465142Y-82319761D01*
X167322285Y-82367380D01*
X167084190Y-82367380D01*
X168084190Y-82367380D02*
X168084190Y-81700714D01*
X168084190Y-81367380D02*
X168036571Y-81415000D01*
X168084190Y-81462619D01*
X168131809Y-81415000D01*
X168084190Y-81367380D01*
X168084190Y-81462619D01*
X168512761Y-82319761D02*
X168608000Y-82367380D01*
X168798476Y-82367380D01*
X168893714Y-82319761D01*
X168941333Y-82224523D01*
X168941333Y-82176904D01*
X168893714Y-82081666D01*
X168798476Y-82034047D01*
X168655619Y-82034047D01*
X168560380Y-81986428D01*
X168512761Y-81891190D01*
X168512761Y-81843571D01*
X168560380Y-81748333D01*
X168655619Y-81700714D01*
X168798476Y-81700714D01*
X168893714Y-81748333D01*
X169369904Y-81700714D02*
X169369904Y-82700714D01*
X169369904Y-81748333D02*
X169465142Y-81700714D01*
X169655619Y-81700714D01*
X169750857Y-81748333D01*
X169798476Y-81795952D01*
X169846095Y-81891190D01*
X169846095Y-82176904D01*
X169798476Y-82272142D01*
X169750857Y-82319761D01*
X169655619Y-82367380D01*
X169465142Y-82367380D01*
X169369904Y-82319761D01*
X170417523Y-82367380D02*
X170322285Y-82319761D01*
X170274666Y-82224523D01*
X170274666Y-81367380D01*
X171227047Y-82367380D02*
X171227047Y-81843571D01*
X171179428Y-81748333D01*
X171084190Y-81700714D01*
X170893714Y-81700714D01*
X170798476Y-81748333D01*
X171227047Y-82319761D02*
X171131809Y-82367380D01*
X170893714Y-82367380D01*
X170798476Y-82319761D01*
X170750857Y-82224523D01*
X170750857Y-82129285D01*
X170798476Y-82034047D01*
X170893714Y-81986428D01*
X171131809Y-81986428D01*
X171227047Y-81938809D01*
X171608000Y-81700714D02*
X171846095Y-82367380D01*
X172084190Y-81700714D02*
X171846095Y-82367380D01*
X171750857Y-82605476D01*
X171703238Y-82653095D01*
X171608000Y-82700714D01*
X161417523Y-83017380D02*
X161750857Y-84017380D01*
X162084190Y-83017380D01*
X162798476Y-83969761D02*
X162703238Y-84017380D01*
X162512761Y-84017380D01*
X162417523Y-83969761D01*
X162369904Y-83874523D01*
X162369904Y-83493571D01*
X162417523Y-83398333D01*
X162512761Y-83350714D01*
X162703238Y-83350714D01*
X162798476Y-83398333D01*
X162846095Y-83493571D01*
X162846095Y-83588809D01*
X162369904Y-83684047D01*
X163274666Y-84017380D02*
X163274666Y-83350714D01*
X163274666Y-83541190D02*
X163322285Y-83445952D01*
X163369904Y-83398333D01*
X163465142Y-83350714D01*
X163560380Y-83350714D01*
X163846095Y-83969761D02*
X163941333Y-84017380D01*
X164131809Y-84017380D01*
X164227047Y-83969761D01*
X164274666Y-83874523D01*
X164274666Y-83826904D01*
X164227047Y-83731666D01*
X164131809Y-83684047D01*
X163988952Y-83684047D01*
X163893714Y-83636428D01*
X163846095Y-83541190D01*
X163846095Y-83493571D01*
X163893714Y-83398333D01*
X163988952Y-83350714D01*
X164131809Y-83350714D01*
X164227047Y-83398333D01*
X164703238Y-84017380D02*
X164703238Y-83350714D01*
X164703238Y-83017380D02*
X164655619Y-83065000D01*
X164703238Y-83112619D01*
X164750857Y-83065000D01*
X164703238Y-83017380D01*
X164703238Y-83112619D01*
X165322285Y-84017380D02*
X165227047Y-83969761D01*
X165179428Y-83922142D01*
X165131809Y-83826904D01*
X165131809Y-83541190D01*
X165179428Y-83445952D01*
X165227047Y-83398333D01*
X165322285Y-83350714D01*
X165465142Y-83350714D01*
X165560380Y-83398333D01*
X165608000Y-83445952D01*
X165655619Y-83541190D01*
X165655619Y-83826904D01*
X165608000Y-83922142D01*
X165560380Y-83969761D01*
X165465142Y-84017380D01*
X165322285Y-84017380D01*
X166084190Y-83350714D02*
X166084190Y-84017380D01*
X166084190Y-83445952D02*
X166131809Y-83398333D01*
X166227047Y-83350714D01*
X166369904Y-83350714D01*
X166465142Y-83398333D01*
X166512761Y-83493571D01*
X166512761Y-84017380D01*
X168274666Y-84017380D02*
X167703238Y-84017380D01*
X167988952Y-84017380D02*
X167988952Y-83017380D01*
X167893714Y-83160238D01*
X167798476Y-83255476D01*
X167703238Y-83303095D01*
X168703238Y-83922142D02*
X168750857Y-83969761D01*
X168703238Y-84017380D01*
X168655619Y-83969761D01*
X168703238Y-83922142D01*
X168703238Y-84017380D01*
X169369904Y-83017380D02*
X169465142Y-83017380D01*
X169560380Y-83065000D01*
X169608000Y-83112619D01*
X169655619Y-83207857D01*
X169703238Y-83398333D01*
X169703238Y-83636428D01*
X169655619Y-83826904D01*
X169608000Y-83922142D01*
X169560380Y-83969761D01*
X169465142Y-84017380D01*
X169369904Y-84017380D01*
X169274666Y-83969761D01*
X169227047Y-83922142D01*
X169179428Y-83826904D01*
X169131809Y-83636428D01*
X169131809Y-83398333D01*
X169179428Y-83207857D01*
X169227047Y-83112619D01*
X169274666Y-83065000D01*
X169369904Y-83017380D01*
D11*
X177168000Y-113415000D02*
X179708000Y-110875000D01*
X177168000Y-124845000D02*
X177168000Y-113415000D01*
X175518000Y-126495000D02*
X177168000Y-124845000D01*
X110868000Y-126495000D02*
X175518000Y-126495000D01*
X110868000Y-116965000D02*
X110868000Y-126495000D01*
X104518000Y-116965000D02*
X110868000Y-116965000D01*
X104518000Y-105285000D02*
X104518000Y-116965000D01*
X110868000Y-105285000D02*
X104518000Y-105285000D01*
X110868000Y-85215000D02*
X110868000Y-105285000D01*
X108968000Y-85215000D02*
X110868000Y-85215000D01*
X108968000Y-76075000D02*
X108968000Y-85215000D01*
X110868000Y-76075000D02*
X108968000Y-76075000D01*
X110868000Y-72895000D02*
X110868000Y-76075000D01*
X177168000Y-72895000D02*
X110868000Y-72895000D01*
X177168000Y-75565000D02*
X177168000Y-72895000D01*
X179708000Y-78105000D02*
X177168000Y-75565000D01*
X179708000Y-110875000D02*
X179708000Y-78105000D01*
X155188000Y-84455000D02*
G75*
G03X155188000Y-84455000I-6100000J0D01*
G01*
X153543000Y-107375000D02*
X142113000Y-107375000D01*
X153543000Y-94555000D02*
X142113000Y-94555000D01*
X157463000Y-106265000D02*
X157463000Y-94665000D01*
X138193000Y-94665000D02*
X138193000Y-107265000D01*
X142828000Y-103965000D02*
X147828000Y-104965000D01*
X147828000Y-104965000D02*
X152828000Y-105965000D01*
X152828000Y-105965000D02*
X152828000Y-98965000D01*
X152828000Y-98965000D02*
X147828000Y-97965000D01*
X142828000Y-96965000D02*
X147828000Y-97965000D01*
X147828000Y-97965000D02*
X147828000Y-104965000D01*
X142828000Y-103965000D02*
X142828000Y-96965000D01*
X153275214Y-96965000D02*
G75*
G03X153275214Y-96965000I-447214J0D01*
G01*
X128218000Y-83325000D02*
X126798000Y-83325000D01*
X126798000Y-83125000D02*
X123218000Y-83125000D01*
X123218000Y-83125000D02*
X123218000Y-83325000D01*
X123218000Y-83325000D02*
X121798000Y-83325000D01*
X121798000Y-83325000D02*
X121798000Y-83125000D01*
X125518000Y-76105000D02*
X127008000Y-76105000D01*
X128318000Y-77415000D02*
X128318000Y-80955000D01*
X121698000Y-81395000D02*
X121698000Y-77415000D01*
X123008000Y-76105000D02*
X124498000Y-76105000D01*
X127008000Y-76105000D02*
G75*
G02X128318000Y-77415000I0J-1310000D01*
G01*
X121698000Y-77415000D02*
G75*
G02X123008000Y-76105000I1310000J0D01*
G01*
X126798000Y-83125000D02*
X126798000Y-83325000D01*
X128218000Y-83325000D02*
X128218000Y-83125000D01*
X128218000Y-83125000D02*
X128318000Y-83125000D01*
X128318000Y-83125000D02*
X128318000Y-82875000D01*
X121798000Y-83125000D02*
X121698000Y-83125000D01*
X121698000Y-83125000D02*
X121698000Y-82435000D01*
X123468000Y-88265000D02*
X124158000Y-88265000D01*
X134088000Y-88265000D02*
X133398000Y-88265000D01*
X124158000Y-89985000D02*
X133398000Y-89985000D01*
X124158000Y-86545000D02*
X124158000Y-89985000D01*
X133398000Y-86545000D02*
X124158000Y-86545000D01*
X133398000Y-89985000D02*
X133398000Y-86545000D01*
X172188000Y-112395000D02*
X171498000Y-112395000D01*
X161568000Y-112395000D02*
X162258000Y-112395000D01*
X171498000Y-110675000D02*
X162258000Y-110675000D01*
X171498000Y-114115000D02*
X171498000Y-110675000D01*
X162258000Y-114115000D02*
X171498000Y-114115000D01*
X162258000Y-110675000D02*
X162258000Y-114115000D01*
X172188000Y-104775000D02*
X171498000Y-104775000D01*
X161568000Y-104775000D02*
X162258000Y-104775000D01*
X171498000Y-103055000D02*
X162258000Y-103055000D01*
X171498000Y-106495000D02*
X171498000Y-103055000D01*
X162258000Y-106495000D02*
X171498000Y-106495000D01*
X162258000Y-103055000D02*
X162258000Y-106495000D01*
X162258000Y-95435000D02*
X162258000Y-98875000D01*
X162258000Y-98875000D02*
X171498000Y-98875000D01*
X171498000Y-98875000D02*
X171498000Y-95435000D01*
X171498000Y-95435000D02*
X162258000Y-95435000D01*
X161568000Y-97155000D02*
X162258000Y-97155000D01*
X172188000Y-97155000D02*
X171498000Y-97155000D01*
X172188000Y-89535000D02*
X171498000Y-89535000D01*
X161568000Y-89535000D02*
X162258000Y-89535000D01*
X171498000Y-87815000D02*
X162258000Y-87815000D01*
X171498000Y-91255000D02*
X171498000Y-87815000D01*
X162258000Y-91255000D02*
X171498000Y-91255000D01*
X162258000Y-87815000D02*
X162258000Y-91255000D01*
X123468000Y-95885000D02*
X124158000Y-95885000D01*
X134088000Y-95885000D02*
X133398000Y-95885000D01*
X124158000Y-97605000D02*
X133398000Y-97605000D01*
X124158000Y-94165000D02*
X124158000Y-97605000D01*
X133398000Y-94165000D02*
X124158000Y-94165000D01*
X133398000Y-97605000D02*
X133398000Y-94165000D01*
X133398000Y-105225000D02*
X133398000Y-101785000D01*
X133398000Y-101785000D02*
X124158000Y-101785000D01*
X124158000Y-101785000D02*
X124158000Y-105225000D01*
X124158000Y-105225000D02*
X133398000Y-105225000D01*
X134088000Y-103505000D02*
X133398000Y-103505000D01*
X123468000Y-103505000D02*
X124158000Y-103505000D01*
X123468000Y-111125000D02*
X124158000Y-111125000D01*
X134088000Y-111125000D02*
X133398000Y-111125000D01*
X124158000Y-112845000D02*
X133398000Y-112845000D01*
X124158000Y-109405000D02*
X124158000Y-112845000D01*
X133398000Y-109405000D02*
X124158000Y-109405000D01*
X133398000Y-112845000D02*
X133398000Y-109405000D01*
D10*
X139493714Y-71921666D02*
X139969904Y-71921666D01*
X139398476Y-72207380D02*
X139731809Y-71207380D01*
X140065142Y-72207380D01*
X140922285Y-72207380D02*
X140350857Y-72207380D01*
X140636571Y-72207380D02*
X140636571Y-71207380D01*
X140541333Y-71350238D01*
X140446095Y-71445476D01*
X140350857Y-71493095D01*
X148207047Y-77183571D02*
X148349904Y-77231190D01*
X148397523Y-77278809D01*
X148445142Y-77374047D01*
X148445142Y-77516904D01*
X148397523Y-77612142D01*
X148349904Y-77659761D01*
X148254666Y-77707380D01*
X147873714Y-77707380D01*
X147873714Y-76707380D01*
X148207047Y-76707380D01*
X148302285Y-76755000D01*
X148349904Y-76802619D01*
X148397523Y-76897857D01*
X148397523Y-76993095D01*
X148349904Y-77088333D01*
X148302285Y-77135952D01*
X148207047Y-77183571D01*
X147873714Y-77183571D01*
X148778476Y-76707380D02*
X149445142Y-76707380D01*
X148778476Y-77707380D01*
X149445142Y-77707380D01*
X150349904Y-77707380D02*
X149778476Y-77707380D01*
X150064190Y-77707380D02*
X150064190Y-76707380D01*
X149968952Y-76850238D01*
X149873714Y-76945476D01*
X149778476Y-76993095D01*
X144897047Y-81986428D02*
X145658952Y-81986428D01*
X145278000Y-82367380D02*
X145278000Y-81605476D01*
X147066095Y-107917380D02*
X147066095Y-108726904D01*
X147113714Y-108822142D01*
X147161333Y-108869761D01*
X147256571Y-108917380D01*
X147447047Y-108917380D01*
X147542285Y-108869761D01*
X147589904Y-108822142D01*
X147637523Y-108726904D01*
X147637523Y-107917380D01*
X148637523Y-108917380D02*
X148066095Y-108917380D01*
X148351809Y-108917380D02*
X148351809Y-107917380D01*
X148256571Y-108060238D01*
X148161333Y-108155476D01*
X148066095Y-108203095D01*
X124312761Y-84867380D02*
X123979428Y-84391190D01*
X123741333Y-84867380D02*
X123741333Y-83867380D01*
X124122285Y-83867380D01*
X124217523Y-83915000D01*
X124265142Y-83962619D01*
X124312761Y-84057857D01*
X124312761Y-84200714D01*
X124265142Y-84295952D01*
X124217523Y-84343571D01*
X124122285Y-84391190D01*
X123741333Y-84391190D01*
X124598476Y-83867380D02*
X124931809Y-84867380D01*
X125265142Y-83867380D01*
X126122285Y-84867380D02*
X125550857Y-84867380D01*
X125836571Y-84867380D02*
X125836571Y-83867380D01*
X125741333Y-84010238D01*
X125646095Y-84105476D01*
X125550857Y-84153095D01*
X128611333Y-91437380D02*
X128278000Y-90961190D01*
X128039904Y-91437380D02*
X128039904Y-90437380D01*
X128420857Y-90437380D01*
X128516095Y-90485000D01*
X128563714Y-90532619D01*
X128611333Y-90627857D01*
X128611333Y-90770714D01*
X128563714Y-90865952D01*
X128516095Y-90913571D01*
X128420857Y-90961190D01*
X128039904Y-90961190D01*
X129182761Y-90865952D02*
X129087523Y-90818333D01*
X129039904Y-90770714D01*
X128992285Y-90675476D01*
X128992285Y-90627857D01*
X129039904Y-90532619D01*
X129087523Y-90485000D01*
X129182761Y-90437380D01*
X129373238Y-90437380D01*
X129468476Y-90485000D01*
X129516095Y-90532619D01*
X129563714Y-90627857D01*
X129563714Y-90675476D01*
X129516095Y-90770714D01*
X129468476Y-90818333D01*
X129373238Y-90865952D01*
X129182761Y-90865952D01*
X129087523Y-90913571D01*
X129039904Y-90961190D01*
X128992285Y-91056428D01*
X128992285Y-91246904D01*
X129039904Y-91342142D01*
X129087523Y-91389761D01*
X129182761Y-91437380D01*
X129373238Y-91437380D01*
X129468476Y-91389761D01*
X129516095Y-91342142D01*
X129563714Y-91246904D01*
X129563714Y-91056428D01*
X129516095Y-90961190D01*
X129468476Y-90913571D01*
X129373238Y-90865952D01*
X166711333Y-110127380D02*
X166378000Y-109651190D01*
X166139904Y-110127380D02*
X166139904Y-109127380D01*
X166520857Y-109127380D01*
X166616095Y-109175000D01*
X166663714Y-109222619D01*
X166711333Y-109317857D01*
X166711333Y-109460714D01*
X166663714Y-109555952D01*
X166616095Y-109603571D01*
X166520857Y-109651190D01*
X166139904Y-109651190D01*
X167044666Y-109127380D02*
X167711333Y-109127380D01*
X167282761Y-110127380D01*
X166711333Y-102507380D02*
X166378000Y-102031190D01*
X166139904Y-102507380D02*
X166139904Y-101507380D01*
X166520857Y-101507380D01*
X166616095Y-101555000D01*
X166663714Y-101602619D01*
X166711333Y-101697857D01*
X166711333Y-101840714D01*
X166663714Y-101935952D01*
X166616095Y-101983571D01*
X166520857Y-102031190D01*
X166139904Y-102031190D01*
X167568476Y-101507380D02*
X167378000Y-101507380D01*
X167282761Y-101555000D01*
X167235142Y-101602619D01*
X167139904Y-101745476D01*
X167092285Y-101935952D01*
X167092285Y-102316904D01*
X167139904Y-102412142D01*
X167187523Y-102459761D01*
X167282761Y-102507380D01*
X167473238Y-102507380D01*
X167568476Y-102459761D01*
X167616095Y-102412142D01*
X167663714Y-102316904D01*
X167663714Y-102078809D01*
X167616095Y-101983571D01*
X167568476Y-101935952D01*
X167473238Y-101888333D01*
X167282761Y-101888333D01*
X167187523Y-101935952D01*
X167139904Y-101983571D01*
X167092285Y-102078809D01*
X166711333Y-94887380D02*
X166378000Y-94411190D01*
X166139904Y-94887380D02*
X166139904Y-93887380D01*
X166520857Y-93887380D01*
X166616095Y-93935000D01*
X166663714Y-93982619D01*
X166711333Y-94077857D01*
X166711333Y-94220714D01*
X166663714Y-94315952D01*
X166616095Y-94363571D01*
X166520857Y-94411190D01*
X166139904Y-94411190D01*
X167616095Y-93887380D02*
X167139904Y-93887380D01*
X167092285Y-94363571D01*
X167139904Y-94315952D01*
X167235142Y-94268333D01*
X167473238Y-94268333D01*
X167568476Y-94315952D01*
X167616095Y-94363571D01*
X167663714Y-94458809D01*
X167663714Y-94696904D01*
X167616095Y-94792142D01*
X167568476Y-94839761D01*
X167473238Y-94887380D01*
X167235142Y-94887380D01*
X167139904Y-94839761D01*
X167092285Y-94792142D01*
X166711333Y-87267380D02*
X166378000Y-86791190D01*
X166139904Y-87267380D02*
X166139904Y-86267380D01*
X166520857Y-86267380D01*
X166616095Y-86315000D01*
X166663714Y-86362619D01*
X166711333Y-86457857D01*
X166711333Y-86600714D01*
X166663714Y-86695952D01*
X166616095Y-86743571D01*
X166520857Y-86791190D01*
X166139904Y-86791190D01*
X167568476Y-86600714D02*
X167568476Y-87267380D01*
X167330380Y-86219761D02*
X167092285Y-86934047D01*
X167711333Y-86934047D01*
X128611333Y-99057380D02*
X128278000Y-98581190D01*
X128039904Y-99057380D02*
X128039904Y-98057380D01*
X128420857Y-98057380D01*
X128516095Y-98105000D01*
X128563714Y-98152619D01*
X128611333Y-98247857D01*
X128611333Y-98390714D01*
X128563714Y-98485952D01*
X128516095Y-98533571D01*
X128420857Y-98581190D01*
X128039904Y-98581190D01*
X128944666Y-98057380D02*
X129563714Y-98057380D01*
X129230380Y-98438333D01*
X129373238Y-98438333D01*
X129468476Y-98485952D01*
X129516095Y-98533571D01*
X129563714Y-98628809D01*
X129563714Y-98866904D01*
X129516095Y-98962142D01*
X129468476Y-99009761D01*
X129373238Y-99057380D01*
X129087523Y-99057380D01*
X128992285Y-99009761D01*
X128944666Y-98962142D01*
X128611333Y-106677380D02*
X128278000Y-106201190D01*
X128039904Y-106677380D02*
X128039904Y-105677380D01*
X128420857Y-105677380D01*
X128516095Y-105725000D01*
X128563714Y-105772619D01*
X128611333Y-105867857D01*
X128611333Y-106010714D01*
X128563714Y-106105952D01*
X128516095Y-106153571D01*
X128420857Y-106201190D01*
X128039904Y-106201190D01*
X128992285Y-105772619D02*
X129039904Y-105725000D01*
X129135142Y-105677380D01*
X129373238Y-105677380D01*
X129468476Y-105725000D01*
X129516095Y-105772619D01*
X129563714Y-105867857D01*
X129563714Y-105963095D01*
X129516095Y-106105952D01*
X128944666Y-106677380D01*
X129563714Y-106677380D01*
X128611333Y-114297380D02*
X128278000Y-113821190D01*
X128039904Y-114297380D02*
X128039904Y-113297380D01*
X128420857Y-113297380D01*
X128516095Y-113345000D01*
X128563714Y-113392619D01*
X128611333Y-113487857D01*
X128611333Y-113630714D01*
X128563714Y-113725952D01*
X128516095Y-113773571D01*
X128420857Y-113821190D01*
X128039904Y-113821190D01*
X129563714Y-114297380D02*
X128992285Y-114297380D01*
X129278000Y-114297380D02*
X129278000Y-113297380D01*
X129182761Y-113440238D01*
X129087523Y-113535476D01*
X128992285Y-113583095D01*
M02*
