M48
; DRILL file {KiCad (5.1.5)-3} date 09/01/2022 12:39:18
; FORMAT={-:-/ absolute / inch / decimal}
; #@! TF.CreationDate,2022-01-09T12:39:18+00:00
; #@! TF.GenerationSoftware,Kicad,Pcbnew,(5.1.5)-3
FMAT,2
INCH
T1C0.0315
T2C0.0394
%
G90
G05
T1
X6.32Y-4.625
X6.82Y-4.625
X4.82Y-4.275
X5.32Y-4.275
X4.82Y-3.675
X5.32Y-3.675
X5.52Y-3.975
X5.52Y-4.075
X5.52Y-4.175
X5.52Y-4.275
X5.52Y-4.375
X6.12Y-3.975
X6.12Y-4.075
X6.12Y-4.175
X6.12Y-4.275
X6.12Y-4.375
X4.82Y-3.975
X5.32Y-3.975
X4.82Y-4.575
X5.32Y-4.575
X5.1102Y-3.075
X5.2102Y-3.075
X5.3102Y-3.075
X5.4102Y-3.075
X5.47Y-4.975
X5.5102Y-3.075
X5.57Y-4.975
X5.6102Y-3.075
X5.67Y-4.975
X5.7102Y-3.075
X5.77Y-4.975
X5.8102Y-3.075
X5.87Y-4.975
X5.9102Y-3.075
X5.97Y-4.975
X6.0102Y-3.075
X6.07Y-4.975
X6.17Y-3.075
X6.17Y-4.975
X6.27Y-3.075
X6.37Y-3.075
X6.37Y-4.975
X6.47Y-3.075
X6.47Y-4.975
X6.57Y-3.075
X6.57Y-4.975
X6.67Y-3.075
X6.67Y-4.975
X6.77Y-3.075
X6.77Y-4.975
X6.87Y-3.075
X6.87Y-4.975
X6.32Y-4.025
X6.82Y-4.025
X6.32Y-4.325
X6.82Y-4.325
X6.32Y-3.725
X6.82Y-3.725
T2
X5.57Y-4.75
X5.67Y-4.75
X5.77Y-4.75
X5.87Y-4.75
X5.97Y-4.75
X6.07Y-4.75
X5.72Y-3.525
X6.0192Y-3.525
X5.145Y-4.825
X5.145Y-4.925
X4.8231Y-3.425
X4.9216Y-3.2281
X5.02Y-3.425
T0
M30
