G04 #@! TF.GenerationSoftware,KiCad,Pcbnew,(5.1.5)-3*
G04 #@! TF.CreationDate,2022-01-09T12:48:11+00:00*
G04 #@! TF.ProjectId,MorseSerialArduinoShield,4d6f7273-6553-4657-9269-616c41726475,rev?*
G04 #@! TF.SameCoordinates,Original*
G04 #@! TF.FileFunction,Copper,L2,Bot*
G04 #@! TF.FilePolarity,Positive*
%FSLAX46Y46*%
G04 Gerber Fmt 4.6, Leading zero omitted, Abs format (unit mm)*
G04 Created by KiCad (PCBNEW (5.1.5)-3) date 2022-01-09 12:48:11*
%MOMM*%
%LPD*%
G04 APERTURE LIST*
%ADD10O,1.700000X1.700000*%
%ADD11R,1.700000X1.700000*%
%ADD12O,1.600000X1.600000*%
%ADD13R,1.600000X1.600000*%
%ADD14C,1.550000*%
%ADD15R,1.550000X1.550000*%
%ADD16C,1.600000*%
%ADD17C,2.000000*%
%ADD18R,2.000000X2.000000*%
%ADD19R,2.524000X1.524000*%
%ADD20O,2.524000X1.524000*%
%ADD21C,0.250000*%
G04 APERTURE END LIST*
D10*
X130683000Y-122555000D03*
D11*
X130683000Y-125095000D03*
D10*
X141478000Y-120650000D03*
X144018000Y-120650000D03*
X146558000Y-120650000D03*
X149098000Y-120650000D03*
X151638000Y-120650000D03*
D11*
X154178000Y-120650000D03*
D12*
X129798000Y-78105000D03*
X132338000Y-78105000D03*
D13*
X138938000Y-126365000D03*
D12*
X169418000Y-78105000D03*
X141478000Y-126365000D03*
X166878000Y-78105000D03*
X144018000Y-126365000D03*
X164338000Y-78105000D03*
X146558000Y-126365000D03*
X161798000Y-78105000D03*
X149098000Y-126365000D03*
X159258000Y-78105000D03*
X151638000Y-126365000D03*
X156718000Y-78105000D03*
X154178000Y-126365000D03*
X152658000Y-78105000D03*
X156718000Y-126365000D03*
X150118000Y-78105000D03*
X161798000Y-126365000D03*
X147578000Y-78105000D03*
X164338000Y-126365000D03*
X145038000Y-78105000D03*
X166878000Y-126365000D03*
X142498000Y-78105000D03*
X169418000Y-126365000D03*
X139958000Y-78105000D03*
X171958000Y-126365000D03*
X137418000Y-78105000D03*
X174498000Y-126365000D03*
X134878000Y-78105000D03*
X174498000Y-78105000D03*
X171958000Y-78105000D03*
D14*
X125008000Y-81995000D03*
D15*
X127508000Y-86995000D03*
D14*
X122508000Y-86995000D03*
D12*
X173228000Y-117475000D03*
D16*
X160528000Y-117475000D03*
D17*
X152888000Y-89535000D03*
D18*
X145288000Y-89535000D03*
D19*
X155448000Y-111125000D03*
D20*
X155448000Y-108585000D03*
X155448000Y-106045000D03*
X155448000Y-103505000D03*
X155448000Y-100965000D03*
X140208000Y-100965000D03*
X140208000Y-103505000D03*
X140208000Y-106045000D03*
X140208000Y-108585000D03*
X140208000Y-111125000D03*
D12*
X122428000Y-93345000D03*
D16*
X135128000Y-93345000D03*
D12*
X173228000Y-109855000D03*
D16*
X160528000Y-109855000D03*
X160528000Y-102235000D03*
D12*
X173228000Y-102235000D03*
X173228000Y-94615000D03*
D16*
X160528000Y-94615000D03*
D12*
X122428000Y-100965000D03*
D16*
X135128000Y-100965000D03*
X135128000Y-108585000D03*
D12*
X122428000Y-108585000D03*
X122428000Y-116205000D03*
D16*
X135128000Y-116205000D03*
D21*
X152888000Y-89535000D02*
X155448000Y-89535000D01*
X155448000Y-89535000D02*
X157988000Y-92075000D01*
X156960000Y-106045000D02*
X155448000Y-106045000D01*
X157988000Y-105017000D02*
X156960000Y-106045000D01*
X157988000Y-92075000D02*
X157988000Y-105017000D01*
X137418000Y-79236370D02*
X138826630Y-80645000D01*
X137418000Y-78105000D02*
X137418000Y-79236370D01*
X138826630Y-80645000D02*
X157988000Y-80645000D01*
X157988000Y-80645000D02*
X157988000Y-92075000D01*
X153936000Y-106045000D02*
X155448000Y-106045000D01*
X146558000Y-113423000D02*
X153936000Y-106045000D01*
X146558000Y-120650000D02*
X146558000Y-113423000D01*
X131885081Y-122555000D02*
X133155081Y-121285000D01*
X130683000Y-122555000D02*
X131885081Y-122555000D01*
X133155081Y-121285000D02*
X135128000Y-121285000D01*
X135128000Y-121285000D02*
X139573000Y-116840000D01*
X139573000Y-116840000D02*
X146558000Y-116840000D01*
X171958000Y-80010000D02*
X171958000Y-78105000D01*
X151638000Y-116205000D02*
X154178000Y-113665000D01*
X151638000Y-120650000D02*
X151638000Y-116205000D01*
X175133000Y-113665000D02*
X175133000Y-83185000D01*
X154178000Y-113665000D02*
X175133000Y-113665000D01*
X175133000Y-83185000D02*
X171958000Y-80010000D01*
X149098000Y-123825000D02*
X149098000Y-120650000D01*
X176403000Y-123825000D02*
X149098000Y-123825000D01*
X176403000Y-81141370D02*
X176403000Y-123825000D01*
X174498000Y-78105000D02*
X174498000Y-79236370D01*
X174498000Y-79236370D02*
X176403000Y-81141370D01*
X125008000Y-89495000D02*
X125008000Y-89575000D01*
X148324370Y-124460000D02*
X144018000Y-124460000D01*
X144018000Y-124460000D02*
X144018000Y-120650000D01*
X149098000Y-126365000D02*
X149098000Y-125233630D01*
X149098000Y-125233630D02*
X148324370Y-124460000D01*
X127508000Y-88020000D02*
X127508000Y-86995000D01*
X129023000Y-89535000D02*
X127508000Y-88020000D01*
X145288000Y-89535000D02*
X129023000Y-89535000D01*
M02*
