G04 #@! TF.GenerationSoftware,KiCad,Pcbnew,(5.1.5)-3*
G04 #@! TF.CreationDate,2022-01-09T12:48:11+00:00*
G04 #@! TF.ProjectId,MorseSerialArduinoShield,4d6f7273-6553-4657-9269-616c41726475,rev?*
G04 #@! TF.SameCoordinates,Original*
G04 #@! TF.FileFunction,Copper,L1,Top*
G04 #@! TF.FilePolarity,Positive*
%FSLAX46Y46*%
G04 Gerber Fmt 4.6, Leading zero omitted, Abs format (unit mm)*
G04 Created by KiCad (PCBNEW (5.1.5)-3) date 2022-01-09 12:48:11*
%MOMM*%
%LPD*%
G04 APERTURE LIST*
%ADD10O,1.700000X1.700000*%
%ADD11R,1.700000X1.700000*%
%ADD12O,1.600000X1.600000*%
%ADD13R,1.600000X1.600000*%
%ADD14C,1.550000*%
%ADD15R,1.550000X1.550000*%
%ADD16C,1.600000*%
%ADD17C,2.000000*%
%ADD18R,2.000000X2.000000*%
%ADD19R,2.524000X1.524000*%
%ADD20O,2.524000X1.524000*%
%ADD21C,0.250000*%
G04 APERTURE END LIST*
D10*
X130683000Y-122555000D03*
D11*
X130683000Y-125095000D03*
D10*
X141478000Y-120650000D03*
X144018000Y-120650000D03*
X146558000Y-120650000D03*
X149098000Y-120650000D03*
X151638000Y-120650000D03*
D11*
X154178000Y-120650000D03*
D12*
X129798000Y-78105000D03*
X132338000Y-78105000D03*
D13*
X138938000Y-126365000D03*
D12*
X169418000Y-78105000D03*
X141478000Y-126365000D03*
X166878000Y-78105000D03*
X144018000Y-126365000D03*
X164338000Y-78105000D03*
X146558000Y-126365000D03*
X161798000Y-78105000D03*
X149098000Y-126365000D03*
X159258000Y-78105000D03*
X151638000Y-126365000D03*
X156718000Y-78105000D03*
X154178000Y-126365000D03*
X152658000Y-78105000D03*
X156718000Y-126365000D03*
X150118000Y-78105000D03*
X161798000Y-126365000D03*
X147578000Y-78105000D03*
X164338000Y-126365000D03*
X145038000Y-78105000D03*
X166878000Y-126365000D03*
X142498000Y-78105000D03*
X169418000Y-126365000D03*
X139958000Y-78105000D03*
X171958000Y-126365000D03*
X137418000Y-78105000D03*
X174498000Y-126365000D03*
X134878000Y-78105000D03*
X174498000Y-78105000D03*
X171958000Y-78105000D03*
D14*
X125008000Y-81995000D03*
D15*
X127508000Y-86995000D03*
D14*
X122508000Y-86995000D03*
D12*
X173228000Y-117475000D03*
D16*
X160528000Y-117475000D03*
D17*
X152888000Y-89535000D03*
D18*
X145288000Y-89535000D03*
D19*
X155448000Y-111125000D03*
D20*
X155448000Y-108585000D03*
X155448000Y-106045000D03*
X155448000Y-103505000D03*
X155448000Y-100965000D03*
X140208000Y-100965000D03*
X140208000Y-103505000D03*
X140208000Y-106045000D03*
X140208000Y-108585000D03*
X140208000Y-111125000D03*
D12*
X122428000Y-93345000D03*
D16*
X135128000Y-93345000D03*
D12*
X173228000Y-109855000D03*
D16*
X160528000Y-109855000D03*
X160528000Y-102235000D03*
D12*
X173228000Y-102235000D03*
X173228000Y-94615000D03*
D16*
X160528000Y-94615000D03*
D12*
X122428000Y-100965000D03*
D16*
X135128000Y-100965000D03*
X135128000Y-108585000D03*
D12*
X122428000Y-108585000D03*
X122428000Y-116205000D03*
D16*
X135128000Y-116205000D03*
D21*
X136068000Y-81995000D02*
X125048000Y-81995000D01*
X139958000Y-78105000D02*
X136068000Y-81995000D01*
X122508000Y-84535000D02*
X122508000Y-86995000D01*
X125048000Y-81995000D02*
X122508000Y-84535000D01*
X122428000Y-93345000D02*
X126238000Y-93345000D01*
X126238000Y-93345000D02*
X132588000Y-86995000D01*
X132588000Y-86995000D02*
X136398000Y-86995000D01*
X136398000Y-86745000D02*
X145038000Y-78105000D01*
X136398000Y-86995000D02*
X136398000Y-86745000D01*
X122428000Y-100965000D02*
X126238000Y-100965000D01*
X126238000Y-100965000D02*
X130048000Y-97155000D01*
X130048000Y-91438590D02*
X133221590Y-88265000D01*
X130048000Y-97155000D02*
X130048000Y-91438590D01*
X137418000Y-88265000D02*
X147578000Y-78105000D01*
X133221590Y-88265000D02*
X137418000Y-88265000D01*
X135763000Y-125095000D02*
X130683000Y-125095000D01*
X137668000Y-123190000D02*
X135763000Y-125095000D01*
X156718000Y-126365000D02*
X156718000Y-123190000D01*
X156718000Y-123190000D02*
X137668000Y-123190000D01*
X122428000Y-108585000D02*
X131318000Y-99695000D01*
X131318000Y-99695000D02*
X131318000Y-90805000D01*
X139958000Y-90805000D02*
X152658000Y-78105000D01*
X131318000Y-90805000D02*
X139958000Y-90805000D01*
X156718000Y-95885000D02*
X156718000Y-78105000D01*
X144018000Y-95885000D02*
X156718000Y-95885000D01*
X139573000Y-91440000D02*
X144018000Y-95885000D01*
X133223000Y-92075000D02*
X133858000Y-91440000D01*
X122428000Y-116205000D02*
X123559370Y-116205000D01*
X133223000Y-106541370D02*
X133223000Y-92075000D01*
X123559370Y-116205000D02*
X133223000Y-106541370D01*
X133858000Y-91440000D02*
X139573000Y-91440000D01*
X173228000Y-109855000D02*
X163068000Y-99695000D01*
X163068000Y-81915000D02*
X159258000Y-78105000D01*
X163068000Y-99695000D02*
X163068000Y-81915000D01*
X173228000Y-117475000D02*
X175768000Y-114935000D01*
X175768000Y-114935000D02*
X175768000Y-108585000D01*
X175768000Y-108585000D02*
X166878000Y-99695000D01*
X166878000Y-83185000D02*
X161798000Y-78105000D01*
X166878000Y-99695000D02*
X166878000Y-83185000D01*
X173228000Y-102235000D02*
X173228000Y-98425000D01*
X173228000Y-98425000D02*
X170688000Y-95885000D01*
X170688000Y-95885000D02*
X170688000Y-83185000D01*
X169418000Y-83185000D02*
X164338000Y-78105000D01*
X170688000Y-83185000D02*
X169418000Y-83185000D01*
X173228000Y-94615000D02*
X175768000Y-92075000D01*
X175768000Y-92075000D02*
X175768000Y-80645000D01*
X175768000Y-80645000D02*
X170688000Y-80645000D01*
X170688000Y-79375000D02*
X169418000Y-78105000D01*
X170688000Y-80645000D02*
X170688000Y-79375000D01*
X135128000Y-116205000D02*
X140208000Y-111125000D01*
X135128000Y-108585000D02*
X140208000Y-108585000D01*
X135128000Y-100965000D02*
X135128000Y-102235000D01*
X136398000Y-103505000D02*
X140208000Y-103505000D01*
X135128000Y-102235000D02*
X136398000Y-103505000D01*
X160528000Y-94615000D02*
X155448000Y-99695000D01*
X155448000Y-99695000D02*
X155448000Y-100965000D01*
X160528000Y-102235000D02*
X159258000Y-102235000D01*
X157988000Y-103505000D02*
X155448000Y-103505000D01*
X159258000Y-102235000D02*
X157988000Y-103505000D01*
X160528000Y-109855000D02*
X159258000Y-109855000D01*
X157988000Y-108585000D02*
X155448000Y-108585000D01*
X159258000Y-109855000D02*
X157988000Y-108585000D01*
X156960000Y-111125000D02*
X155448000Y-111125000D01*
X160528000Y-114693000D02*
X156960000Y-111125000D01*
X160528000Y-117475000D02*
X160528000Y-114693000D01*
X138696000Y-100965000D02*
X140208000Y-100965000D01*
X135128000Y-97397000D02*
X138696000Y-100965000D01*
X135128000Y-93345000D02*
X135128000Y-97397000D01*
M02*
