G04 #@! TF.GenerationSoftware,KiCad,Pcbnew,(5.1.5)-3*
G04 #@! TF.CreationDate,2020-07-13T16:19:43+01:00*
G04 #@! TF.ProjectId,MorseSerialArduinoShield,4d6f7273-6553-4657-9269-616c41726475,rev?*
G04 #@! TF.SameCoordinates,Original*
G04 #@! TF.FileFunction,Copper,L2,Bot*
G04 #@! TF.FilePolarity,Positive*
%FSLAX46Y46*%
G04 Gerber Fmt 4.6, Leading zero omitted, Abs format (unit mm)*
G04 Created by KiCad (PCBNEW (5.1.5)-3) date 2020-07-13 16:19:43*
%MOMM*%
%LPD*%
G04 APERTURE LIST*
%ADD10O,1.600000X1.600000*%
%ADD11R,1.600000X1.600000*%
%ADD12C,2.000000*%
%ADD13R,2.000000X2.000000*%
%ADD14R,2.524000X1.524000*%
%ADD15O,2.524000X1.524000*%
%ADD16C,1.550000*%
%ADD17R,1.550000X1.550000*%
%ADD18C,1.600000*%
%ADD19C,0.250000*%
G04 APERTURE END LIST*
D10*
X171958000Y-123825000D03*
X174498000Y-123825000D03*
X134878000Y-123825000D03*
X174498000Y-75565000D03*
X137418000Y-123825000D03*
X171958000Y-75565000D03*
X139958000Y-123825000D03*
X169418000Y-75565000D03*
X142498000Y-123825000D03*
X166878000Y-75565000D03*
X145038000Y-123825000D03*
X164338000Y-75565000D03*
X147578000Y-123825000D03*
X161798000Y-75565000D03*
X150118000Y-123825000D03*
X156718000Y-75565000D03*
X152658000Y-123825000D03*
X154178000Y-75565000D03*
X156718000Y-123825000D03*
X151638000Y-75565000D03*
X159258000Y-123825000D03*
X149098000Y-75565000D03*
X161798000Y-123825000D03*
X146558000Y-75565000D03*
X164338000Y-123825000D03*
X144018000Y-75565000D03*
X166878000Y-123825000D03*
X141478000Y-75565000D03*
X169418000Y-123825000D03*
D11*
X138938000Y-75565000D03*
D10*
X132338000Y-123825000D03*
X129798000Y-123825000D03*
D12*
X152888000Y-84455000D03*
D13*
X145288000Y-84455000D03*
D14*
X155448000Y-106045000D03*
D15*
X155448000Y-103505000D03*
X155448000Y-100965000D03*
X155448000Y-98425000D03*
X155448000Y-95885000D03*
X140208000Y-95885000D03*
X140208000Y-98425000D03*
X140208000Y-100965000D03*
X140208000Y-103505000D03*
X140208000Y-106045000D03*
D16*
X125008000Y-76915000D03*
D17*
X127508000Y-81915000D03*
D16*
X122508000Y-81915000D03*
D10*
X122428000Y-88265000D03*
D18*
X135128000Y-88265000D03*
D10*
X173228000Y-112395000D03*
D18*
X160528000Y-112395000D03*
D10*
X173228000Y-104775000D03*
D18*
X160528000Y-104775000D03*
X160528000Y-97155000D03*
D10*
X173228000Y-97155000D03*
X173228000Y-89535000D03*
D18*
X160528000Y-89535000D03*
D10*
X122428000Y-95885000D03*
D18*
X135128000Y-95885000D03*
X135128000Y-103505000D03*
D10*
X122428000Y-103505000D03*
X122428000Y-111125000D03*
D18*
X135128000Y-111125000D03*
D19*
X152888000Y-84455000D02*
X155448000Y-84455000D01*
X155448000Y-84455000D02*
X157988000Y-86995000D01*
X156960000Y-100965000D02*
X155448000Y-100965000D01*
X157988000Y-99937000D02*
X156960000Y-100965000D01*
X157988000Y-86995000D02*
X157988000Y-99937000D01*
X155448000Y-100965000D02*
X157988000Y-100965000D01*
X157988000Y-106114002D02*
X144087002Y-120015000D01*
X157988000Y-100965000D02*
X157988000Y-106114002D01*
X141228000Y-120015000D02*
X137418000Y-123825000D01*
X144087002Y-120015000D02*
X141228000Y-120015000D01*
X125008000Y-84415000D02*
X125008000Y-84495000D01*
M02*
