G04 #@! TF.GenerationSoftware,KiCad,Pcbnew,(5.1.5)-3*
G04 #@! TF.CreationDate,2022-01-09T12:48:11+00:00*
G04 #@! TF.ProjectId,MorseSerialArduinoShield,4d6f7273-6553-4657-9269-616c41726475,rev?*
G04 #@! TF.SameCoordinates,Original*
G04 #@! TF.FileFunction,Legend,Top*
G04 #@! TF.FilePolarity,Positive*
%FSLAX46Y46*%
G04 Gerber Fmt 4.6, Leading zero omitted, Abs format (unit mm)*
G04 Created by KiCad (PCBNEW (5.1.5)-3) date 2022-01-09 12:48:11*
%MOMM*%
%LPD*%
G04 APERTURE LIST*
%ADD10C,0.300000*%
%ADD11C,0.150000*%
%ADD12C,0.120000*%
G04 APERTURE END LIST*
D10*
X112716571Y-113608571D02*
X113788000Y-113608571D01*
X114002285Y-113680000D01*
X114145142Y-113822857D01*
X114216571Y-114037142D01*
X114216571Y-114180000D01*
X114216571Y-112180000D02*
X114216571Y-112894285D01*
X112716571Y-112894285D01*
X114073714Y-110822857D02*
X114145142Y-110894285D01*
X114216571Y-111108571D01*
X114216571Y-111251428D01*
X114145142Y-111465714D01*
X114002285Y-111608571D01*
X113859428Y-111680000D01*
X113573714Y-111751428D01*
X113359428Y-111751428D01*
X113073714Y-111680000D01*
X112930857Y-111608571D01*
X112788000Y-111465714D01*
X112716571Y-111251428D01*
X112716571Y-111108571D01*
X112788000Y-110894285D01*
X112859428Y-110822857D01*
X112716571Y-109751428D02*
X113788000Y-109751428D01*
X114002285Y-109822857D01*
X114145142Y-109965714D01*
X114216571Y-110180000D01*
X114216571Y-110322857D01*
X114216571Y-108322857D02*
X114216571Y-109037142D01*
X112716571Y-109037142D01*
X114073714Y-106965714D02*
X114145142Y-107037142D01*
X114216571Y-107251428D01*
X114216571Y-107394285D01*
X114145142Y-107608571D01*
X114002285Y-107751428D01*
X113859428Y-107822857D01*
X113573714Y-107894285D01*
X113359428Y-107894285D01*
X113073714Y-107822857D01*
X112930857Y-107751428D01*
X112788000Y-107608571D01*
X112716571Y-107394285D01*
X112716571Y-107251428D01*
X112788000Y-107037142D01*
X112859428Y-106965714D01*
X112716571Y-105894285D02*
X113788000Y-105894285D01*
X114002285Y-105965714D01*
X114145142Y-106108571D01*
X114216571Y-106322857D01*
X114216571Y-106465714D01*
X114216571Y-104465714D02*
X114216571Y-105180000D01*
X112716571Y-105180000D01*
X114073714Y-103108571D02*
X114145142Y-103180000D01*
X114216571Y-103394285D01*
X114216571Y-103537142D01*
X114145142Y-103751428D01*
X114002285Y-103894285D01*
X113859428Y-103965714D01*
X113573714Y-104037142D01*
X113359428Y-104037142D01*
X113073714Y-103965714D01*
X112930857Y-103894285D01*
X112788000Y-103751428D01*
X112716571Y-103537142D01*
X112716571Y-103394285D01*
X112788000Y-103180000D01*
X112859428Y-103108571D01*
X112716571Y-102037142D02*
X113788000Y-102037142D01*
X114002285Y-102108571D01*
X114145142Y-102251428D01*
X114216571Y-102465714D01*
X114216571Y-102608571D01*
X114216571Y-100608571D02*
X114216571Y-101322857D01*
X112716571Y-101322857D01*
X114073714Y-99251428D02*
X114145142Y-99322857D01*
X114216571Y-99537142D01*
X114216571Y-99680000D01*
X114145142Y-99894285D01*
X114002285Y-100037142D01*
X113859428Y-100108571D01*
X113573714Y-100180000D01*
X113359428Y-100180000D01*
X113073714Y-100108571D01*
X112930857Y-100037142D01*
X112788000Y-99894285D01*
X112716571Y-99680000D01*
X112716571Y-99537142D01*
X112788000Y-99322857D01*
X112859428Y-99251428D01*
D11*
X110998000Y-128905000D02*
X177038000Y-128905000D01*
X110998000Y-125730000D02*
X110998000Y-128905000D01*
X109093000Y-125730000D02*
X110998000Y-125730000D01*
X109093000Y-116840000D02*
X109093000Y-125730000D01*
X110998000Y-116840000D02*
X109093000Y-116840000D01*
X110998000Y-96520000D02*
X110998000Y-116840000D01*
X104648000Y-96520000D02*
X110998000Y-96520000D01*
X104648000Y-85090000D02*
X104648000Y-96520000D01*
X110998000Y-85090000D02*
X104648000Y-85090000D01*
X110998000Y-84455000D02*
X110998000Y-85090000D01*
X110998000Y-75565000D02*
X110998000Y-84455000D01*
X175768000Y-75565000D02*
X110998000Y-75565000D01*
X177038000Y-76835000D02*
X175768000Y-75565000D01*
X177038000Y-88265000D02*
X177038000Y-76835000D01*
X179578000Y-90805000D02*
X177038000Y-88265000D01*
X179578000Y-92075000D02*
X179578000Y-90805000D01*
X179578000Y-123825000D02*
X179578000Y-92075000D01*
X177038000Y-126365000D02*
X179578000Y-123825000D01*
X177038000Y-128905000D02*
X177038000Y-126365000D01*
X158250857Y-84686666D02*
X158727047Y-84686666D01*
X158155619Y-84972380D02*
X158488952Y-83972380D01*
X158822285Y-84972380D01*
X159155619Y-84972380D02*
X159155619Y-84305714D01*
X159155619Y-84496190D02*
X159203238Y-84400952D01*
X159250857Y-84353333D01*
X159346095Y-84305714D01*
X159441333Y-84305714D01*
X160203238Y-84972380D02*
X160203238Y-83972380D01*
X160203238Y-84924761D02*
X160108000Y-84972380D01*
X159917523Y-84972380D01*
X159822285Y-84924761D01*
X159774666Y-84877142D01*
X159727047Y-84781904D01*
X159727047Y-84496190D01*
X159774666Y-84400952D01*
X159822285Y-84353333D01*
X159917523Y-84305714D01*
X160108000Y-84305714D01*
X160203238Y-84353333D01*
X161108000Y-84305714D02*
X161108000Y-84972380D01*
X160679428Y-84305714D02*
X160679428Y-84829523D01*
X160727047Y-84924761D01*
X160822285Y-84972380D01*
X160965142Y-84972380D01*
X161060380Y-84924761D01*
X161108000Y-84877142D01*
X161584190Y-84972380D02*
X161584190Y-84305714D01*
X161584190Y-83972380D02*
X161536571Y-84020000D01*
X161584190Y-84067619D01*
X161631809Y-84020000D01*
X161584190Y-83972380D01*
X161584190Y-84067619D01*
X162060380Y-84305714D02*
X162060380Y-84972380D01*
X162060380Y-84400952D02*
X162108000Y-84353333D01*
X162203238Y-84305714D01*
X162346095Y-84305714D01*
X162441333Y-84353333D01*
X162488952Y-84448571D01*
X162488952Y-84972380D01*
X163108000Y-84972380D02*
X163012761Y-84924761D01*
X162965142Y-84877142D01*
X162917523Y-84781904D01*
X162917523Y-84496190D01*
X162965142Y-84400952D01*
X163012761Y-84353333D01*
X163108000Y-84305714D01*
X163250857Y-84305714D01*
X163346095Y-84353333D01*
X163393714Y-84400952D01*
X163441333Y-84496190D01*
X163441333Y-84781904D01*
X163393714Y-84877142D01*
X163346095Y-84924761D01*
X163250857Y-84972380D01*
X163108000Y-84972380D01*
X164631809Y-84972380D02*
X164631809Y-83972380D01*
X164965142Y-84686666D01*
X165298476Y-83972380D01*
X165298476Y-84972380D01*
X165917523Y-84972380D02*
X165822285Y-84924761D01*
X165774666Y-84877142D01*
X165727047Y-84781904D01*
X165727047Y-84496190D01*
X165774666Y-84400952D01*
X165822285Y-84353333D01*
X165917523Y-84305714D01*
X166060380Y-84305714D01*
X166155619Y-84353333D01*
X166203238Y-84400952D01*
X166250857Y-84496190D01*
X166250857Y-84781904D01*
X166203238Y-84877142D01*
X166155619Y-84924761D01*
X166060380Y-84972380D01*
X165917523Y-84972380D01*
X166679428Y-84972380D02*
X166679428Y-84305714D01*
X166679428Y-84496190D02*
X166727047Y-84400952D01*
X166774666Y-84353333D01*
X166869904Y-84305714D01*
X166965142Y-84305714D01*
X167250857Y-84924761D02*
X167346095Y-84972380D01*
X167536571Y-84972380D01*
X167631809Y-84924761D01*
X167679428Y-84829523D01*
X167679428Y-84781904D01*
X167631809Y-84686666D01*
X167536571Y-84639047D01*
X167393714Y-84639047D01*
X167298476Y-84591428D01*
X167250857Y-84496190D01*
X167250857Y-84448571D01*
X167298476Y-84353333D01*
X167393714Y-84305714D01*
X167536571Y-84305714D01*
X167631809Y-84353333D01*
X168488952Y-84924761D02*
X168393714Y-84972380D01*
X168203238Y-84972380D01*
X168108000Y-84924761D01*
X168060380Y-84829523D01*
X168060380Y-84448571D01*
X168108000Y-84353333D01*
X168203238Y-84305714D01*
X168393714Y-84305714D01*
X168488952Y-84353333D01*
X168536571Y-84448571D01*
X168536571Y-84543809D01*
X168060380Y-84639047D01*
X170298476Y-84877142D02*
X170250857Y-84924761D01*
X170108000Y-84972380D01*
X170012761Y-84972380D01*
X169869904Y-84924761D01*
X169774666Y-84829523D01*
X169727047Y-84734285D01*
X169679428Y-84543809D01*
X169679428Y-84400952D01*
X169727047Y-84210476D01*
X169774666Y-84115238D01*
X169869904Y-84020000D01*
X170012761Y-83972380D01*
X170108000Y-83972380D01*
X170250857Y-84020000D01*
X170298476Y-84067619D01*
X170869904Y-84972380D02*
X170774666Y-84924761D01*
X170727047Y-84877142D01*
X170679428Y-84781904D01*
X170679428Y-84496190D01*
X170727047Y-84400952D01*
X170774666Y-84353333D01*
X170869904Y-84305714D01*
X171012761Y-84305714D01*
X171108000Y-84353333D01*
X171155619Y-84400952D01*
X171203238Y-84496190D01*
X171203238Y-84781904D01*
X171155619Y-84877142D01*
X171108000Y-84924761D01*
X171012761Y-84972380D01*
X170869904Y-84972380D01*
X172060380Y-84972380D02*
X172060380Y-83972380D01*
X172060380Y-84924761D02*
X171965142Y-84972380D01*
X171774666Y-84972380D01*
X171679428Y-84924761D01*
X171631809Y-84877142D01*
X171584190Y-84781904D01*
X171584190Y-84496190D01*
X171631809Y-84400952D01*
X171679428Y-84353333D01*
X171774666Y-84305714D01*
X171965142Y-84305714D01*
X172060380Y-84353333D01*
X172917523Y-84924761D02*
X172822285Y-84972380D01*
X172631809Y-84972380D01*
X172536571Y-84924761D01*
X172488952Y-84829523D01*
X172488952Y-84448571D01*
X172536571Y-84353333D01*
X172631809Y-84305714D01*
X172822285Y-84305714D01*
X172917523Y-84353333D01*
X172965142Y-84448571D01*
X172965142Y-84543809D01*
X172488952Y-84639047D01*
X159179428Y-86098571D02*
X159322285Y-86146190D01*
X159369904Y-86193809D01*
X159417523Y-86289047D01*
X159417523Y-86431904D01*
X159369904Y-86527142D01*
X159322285Y-86574761D01*
X159227047Y-86622380D01*
X158846095Y-86622380D01*
X158846095Y-85622380D01*
X159179428Y-85622380D01*
X159274666Y-85670000D01*
X159322285Y-85717619D01*
X159369904Y-85812857D01*
X159369904Y-85908095D01*
X159322285Y-86003333D01*
X159274666Y-86050952D01*
X159179428Y-86098571D01*
X158846095Y-86098571D01*
X160227047Y-86574761D02*
X160131809Y-86622380D01*
X159941333Y-86622380D01*
X159846095Y-86574761D01*
X159798476Y-86479523D01*
X159798476Y-86098571D01*
X159846095Y-86003333D01*
X159941333Y-85955714D01*
X160131809Y-85955714D01*
X160227047Y-86003333D01*
X160274666Y-86098571D01*
X160274666Y-86193809D01*
X159798476Y-86289047D01*
X161084190Y-86574761D02*
X160988952Y-86622380D01*
X160798476Y-86622380D01*
X160703238Y-86574761D01*
X160655619Y-86479523D01*
X160655619Y-86098571D01*
X160703238Y-86003333D01*
X160798476Y-85955714D01*
X160988952Y-85955714D01*
X161084190Y-86003333D01*
X161131809Y-86098571D01*
X161131809Y-86193809D01*
X160655619Y-86289047D01*
X161560380Y-85955714D02*
X161560380Y-86955714D01*
X161560380Y-86003333D02*
X161655619Y-85955714D01*
X161846095Y-85955714D01*
X161941333Y-86003333D01*
X161988952Y-86050952D01*
X162036571Y-86146190D01*
X162036571Y-86431904D01*
X161988952Y-86527142D01*
X161941333Y-86574761D01*
X161846095Y-86622380D01*
X161655619Y-86622380D01*
X161560380Y-86574761D01*
X163655619Y-86622380D02*
X163655619Y-86098571D01*
X163608000Y-86003333D01*
X163512761Y-85955714D01*
X163322285Y-85955714D01*
X163227047Y-86003333D01*
X163655619Y-86574761D02*
X163560380Y-86622380D01*
X163322285Y-86622380D01*
X163227047Y-86574761D01*
X163179428Y-86479523D01*
X163179428Y-86384285D01*
X163227047Y-86289047D01*
X163322285Y-86241428D01*
X163560380Y-86241428D01*
X163655619Y-86193809D01*
X164131809Y-85955714D02*
X164131809Y-86622380D01*
X164131809Y-86050952D02*
X164179428Y-86003333D01*
X164274666Y-85955714D01*
X164417523Y-85955714D01*
X164512761Y-86003333D01*
X164560380Y-86098571D01*
X164560380Y-86622380D01*
X165465142Y-86622380D02*
X165465142Y-85622380D01*
X165465142Y-86574761D02*
X165369904Y-86622380D01*
X165179428Y-86622380D01*
X165084190Y-86574761D01*
X165036571Y-86527142D01*
X164988952Y-86431904D01*
X164988952Y-86146190D01*
X165036571Y-86050952D01*
X165084190Y-86003333D01*
X165179428Y-85955714D01*
X165369904Y-85955714D01*
X165465142Y-86003333D01*
X166703238Y-86622380D02*
X166703238Y-85622380D01*
X166941333Y-85622380D01*
X167084190Y-85670000D01*
X167179428Y-85765238D01*
X167227047Y-85860476D01*
X167274666Y-86050952D01*
X167274666Y-86193809D01*
X167227047Y-86384285D01*
X167179428Y-86479523D01*
X167084190Y-86574761D01*
X166941333Y-86622380D01*
X166703238Y-86622380D01*
X167703238Y-86622380D02*
X167703238Y-85955714D01*
X167703238Y-85622380D02*
X167655619Y-85670000D01*
X167703238Y-85717619D01*
X167750857Y-85670000D01*
X167703238Y-85622380D01*
X167703238Y-85717619D01*
X168131809Y-86574761D02*
X168227047Y-86622380D01*
X168417523Y-86622380D01*
X168512761Y-86574761D01*
X168560380Y-86479523D01*
X168560380Y-86431904D01*
X168512761Y-86336666D01*
X168417523Y-86289047D01*
X168274666Y-86289047D01*
X168179428Y-86241428D01*
X168131809Y-86146190D01*
X168131809Y-86098571D01*
X168179428Y-86003333D01*
X168274666Y-85955714D01*
X168417523Y-85955714D01*
X168512761Y-86003333D01*
X168988952Y-85955714D02*
X168988952Y-86955714D01*
X168988952Y-86003333D02*
X169084190Y-85955714D01*
X169274666Y-85955714D01*
X169369904Y-86003333D01*
X169417523Y-86050952D01*
X169465142Y-86146190D01*
X169465142Y-86431904D01*
X169417523Y-86527142D01*
X169369904Y-86574761D01*
X169274666Y-86622380D01*
X169084190Y-86622380D01*
X168988952Y-86574761D01*
X170036571Y-86622380D02*
X169941333Y-86574761D01*
X169893714Y-86479523D01*
X169893714Y-85622380D01*
X170846095Y-86622380D02*
X170846095Y-86098571D01*
X170798476Y-86003333D01*
X170703238Y-85955714D01*
X170512761Y-85955714D01*
X170417523Y-86003333D01*
X170846095Y-86574761D02*
X170750857Y-86622380D01*
X170512761Y-86622380D01*
X170417523Y-86574761D01*
X170369904Y-86479523D01*
X170369904Y-86384285D01*
X170417523Y-86289047D01*
X170512761Y-86241428D01*
X170750857Y-86241428D01*
X170846095Y-86193809D01*
X171227047Y-85955714D02*
X171465142Y-86622380D01*
X171703238Y-85955714D02*
X171465142Y-86622380D01*
X171369904Y-86860476D01*
X171322285Y-86908095D01*
X171227047Y-86955714D01*
X159560380Y-87748571D02*
X159703238Y-87796190D01*
X159750857Y-87843809D01*
X159798476Y-87939047D01*
X159798476Y-88081904D01*
X159750857Y-88177142D01*
X159703238Y-88224761D01*
X159608000Y-88272380D01*
X159227047Y-88272380D01*
X159227047Y-87272380D01*
X159560380Y-87272380D01*
X159655619Y-87320000D01*
X159703238Y-87367619D01*
X159750857Y-87462857D01*
X159750857Y-87558095D01*
X159703238Y-87653333D01*
X159655619Y-87700952D01*
X159560380Y-87748571D01*
X159227047Y-87748571D01*
X160369904Y-88272380D02*
X160274666Y-88224761D01*
X160227047Y-88129523D01*
X160227047Y-87272380D01*
X161179428Y-87605714D02*
X161179428Y-88272380D01*
X160750857Y-87605714D02*
X160750857Y-88129523D01*
X160798476Y-88224761D01*
X160893714Y-88272380D01*
X161036571Y-88272380D01*
X161131809Y-88224761D01*
X161179428Y-88177142D01*
X162036571Y-88224761D02*
X161941333Y-88272380D01*
X161750857Y-88272380D01*
X161655619Y-88224761D01*
X161608000Y-88129523D01*
X161608000Y-87748571D01*
X161655619Y-87653333D01*
X161750857Y-87605714D01*
X161941333Y-87605714D01*
X162036571Y-87653333D01*
X162084190Y-87748571D01*
X162084190Y-87843809D01*
X161608000Y-87939047D01*
X162369904Y-87605714D02*
X162750857Y-87605714D01*
X162512761Y-87272380D02*
X162512761Y-88129523D01*
X162560380Y-88224761D01*
X162655619Y-88272380D01*
X162750857Y-88272380D01*
X163227047Y-88272380D02*
X163131809Y-88224761D01*
X163084190Y-88177142D01*
X163036571Y-88081904D01*
X163036571Y-87796190D01*
X163084190Y-87700952D01*
X163131809Y-87653333D01*
X163227047Y-87605714D01*
X163369904Y-87605714D01*
X163465142Y-87653333D01*
X163512761Y-87700952D01*
X163560380Y-87796190D01*
X163560380Y-88081904D01*
X163512761Y-88177142D01*
X163465142Y-88224761D01*
X163369904Y-88272380D01*
X163227047Y-88272380D01*
X164131809Y-88272380D02*
X164036571Y-88224761D01*
X163988952Y-88177142D01*
X163941333Y-88081904D01*
X163941333Y-87796190D01*
X163988952Y-87700952D01*
X164036571Y-87653333D01*
X164131809Y-87605714D01*
X164274666Y-87605714D01*
X164369904Y-87653333D01*
X164417523Y-87700952D01*
X164465142Y-87796190D01*
X164465142Y-88081904D01*
X164417523Y-88177142D01*
X164369904Y-88224761D01*
X164274666Y-88272380D01*
X164131809Y-88272380D01*
X164750857Y-87605714D02*
X165131809Y-87605714D01*
X164893714Y-87272380D02*
X164893714Y-88129523D01*
X164941333Y-88224761D01*
X165036571Y-88272380D01*
X165131809Y-88272380D01*
X165465142Y-88272380D02*
X165465142Y-87272380D01*
X165893714Y-88272380D02*
X165893714Y-87748571D01*
X165846095Y-87653333D01*
X165750857Y-87605714D01*
X165608000Y-87605714D01*
X165512761Y-87653333D01*
X165465142Y-87700952D01*
X167036571Y-87605714D02*
X167274666Y-88272380D01*
X167512761Y-87605714D01*
X168274666Y-88224761D02*
X168179428Y-88272380D01*
X167988952Y-88272380D01*
X167893714Y-88224761D01*
X167846095Y-88129523D01*
X167846095Y-87748571D01*
X167893714Y-87653333D01*
X167988952Y-87605714D01*
X168179428Y-87605714D01*
X168274666Y-87653333D01*
X168322285Y-87748571D01*
X168322285Y-87843809D01*
X167846095Y-87939047D01*
X168750857Y-88272380D02*
X168750857Y-87605714D01*
X168750857Y-87796190D02*
X168798476Y-87700952D01*
X168846095Y-87653333D01*
X168941333Y-87605714D01*
X169036571Y-87605714D01*
X169322285Y-88224761D02*
X169417523Y-88272380D01*
X169608000Y-88272380D01*
X169703238Y-88224761D01*
X169750857Y-88129523D01*
X169750857Y-88081904D01*
X169703238Y-87986666D01*
X169608000Y-87939047D01*
X169465142Y-87939047D01*
X169369904Y-87891428D01*
X169322285Y-87796190D01*
X169322285Y-87748571D01*
X169369904Y-87653333D01*
X169465142Y-87605714D01*
X169608000Y-87605714D01*
X169703238Y-87653333D01*
X170179428Y-88272380D02*
X170179428Y-87605714D01*
X170179428Y-87272380D02*
X170131809Y-87320000D01*
X170179428Y-87367619D01*
X170227047Y-87320000D01*
X170179428Y-87272380D01*
X170179428Y-87367619D01*
X170798476Y-88272380D02*
X170703238Y-88224761D01*
X170655619Y-88177142D01*
X170608000Y-88081904D01*
X170608000Y-87796190D01*
X170655619Y-87700952D01*
X170703238Y-87653333D01*
X170798476Y-87605714D01*
X170941333Y-87605714D01*
X171036571Y-87653333D01*
X171084190Y-87700952D01*
X171131809Y-87796190D01*
X171131809Y-88081904D01*
X171084190Y-88177142D01*
X171036571Y-88224761D01*
X170941333Y-88272380D01*
X170798476Y-88272380D01*
X171560380Y-87605714D02*
X171560380Y-88272380D01*
X171560380Y-87700952D02*
X171608000Y-87653333D01*
X171703238Y-87605714D01*
X171846095Y-87605714D01*
X171941333Y-87653333D01*
X171988952Y-87748571D01*
X171988952Y-88272380D01*
X161417523Y-88922380D02*
X161750857Y-89922380D01*
X162084190Y-88922380D01*
X162798476Y-89874761D02*
X162703238Y-89922380D01*
X162512761Y-89922380D01*
X162417523Y-89874761D01*
X162369904Y-89779523D01*
X162369904Y-89398571D01*
X162417523Y-89303333D01*
X162512761Y-89255714D01*
X162703238Y-89255714D01*
X162798476Y-89303333D01*
X162846095Y-89398571D01*
X162846095Y-89493809D01*
X162369904Y-89589047D01*
X163274666Y-89922380D02*
X163274666Y-89255714D01*
X163274666Y-89446190D02*
X163322285Y-89350952D01*
X163369904Y-89303333D01*
X163465142Y-89255714D01*
X163560380Y-89255714D01*
X163846095Y-89874761D02*
X163941333Y-89922380D01*
X164131809Y-89922380D01*
X164227047Y-89874761D01*
X164274666Y-89779523D01*
X164274666Y-89731904D01*
X164227047Y-89636666D01*
X164131809Y-89589047D01*
X163988952Y-89589047D01*
X163893714Y-89541428D01*
X163846095Y-89446190D01*
X163846095Y-89398571D01*
X163893714Y-89303333D01*
X163988952Y-89255714D01*
X164131809Y-89255714D01*
X164227047Y-89303333D01*
X164703238Y-89922380D02*
X164703238Y-89255714D01*
X164703238Y-88922380D02*
X164655619Y-88970000D01*
X164703238Y-89017619D01*
X164750857Y-88970000D01*
X164703238Y-88922380D01*
X164703238Y-89017619D01*
X165322285Y-89922380D02*
X165227047Y-89874761D01*
X165179428Y-89827142D01*
X165131809Y-89731904D01*
X165131809Y-89446190D01*
X165179428Y-89350952D01*
X165227047Y-89303333D01*
X165322285Y-89255714D01*
X165465142Y-89255714D01*
X165560380Y-89303333D01*
X165608000Y-89350952D01*
X165655619Y-89446190D01*
X165655619Y-89731904D01*
X165608000Y-89827142D01*
X165560380Y-89874761D01*
X165465142Y-89922380D01*
X165322285Y-89922380D01*
X166084190Y-89255714D02*
X166084190Y-89922380D01*
X166084190Y-89350952D02*
X166131809Y-89303333D01*
X166227047Y-89255714D01*
X166369904Y-89255714D01*
X166465142Y-89303333D01*
X166512761Y-89398571D01*
X166512761Y-89922380D01*
X168274666Y-89922380D02*
X167703238Y-89922380D01*
X167988952Y-89922380D02*
X167988952Y-88922380D01*
X167893714Y-89065238D01*
X167798476Y-89160476D01*
X167703238Y-89208095D01*
X168703238Y-89827142D02*
X168750857Y-89874761D01*
X168703238Y-89922380D01*
X168655619Y-89874761D01*
X168703238Y-89827142D01*
X168703238Y-89922380D01*
X169369904Y-88922380D02*
X169465142Y-88922380D01*
X169560380Y-88970000D01*
X169608000Y-89017619D01*
X169655619Y-89112857D01*
X169703238Y-89303333D01*
X169703238Y-89541428D01*
X169655619Y-89731904D01*
X169608000Y-89827142D01*
X169560380Y-89874761D01*
X169465142Y-89922380D01*
X169369904Y-89922380D01*
X169274666Y-89874761D01*
X169227047Y-89827142D01*
X169179428Y-89731904D01*
X169131809Y-89541428D01*
X169131809Y-89303333D01*
X169179428Y-89112857D01*
X169227047Y-89017619D01*
X169274666Y-88970000D01*
X169369904Y-88922380D01*
D12*
X130683000Y-126425000D02*
X129353000Y-126425000D01*
X129353000Y-126425000D02*
X129353000Y-125095000D01*
X129353000Y-123825000D02*
X129353000Y-121225000D01*
X132013000Y-121225000D02*
X129353000Y-121225000D01*
X132013000Y-123825000D02*
X132013000Y-121225000D01*
X132013000Y-123825000D02*
X129353000Y-123825000D01*
X155508000Y-120650000D02*
X155508000Y-121980000D01*
X155508000Y-121980000D02*
X154178000Y-121980000D01*
X152908000Y-121980000D02*
X140148000Y-121980000D01*
X140148000Y-119320000D02*
X140148000Y-121980000D01*
X152908000Y-119320000D02*
X140148000Y-119320000D01*
X152908000Y-119320000D02*
X152908000Y-121980000D01*
X128218000Y-88405000D02*
X126798000Y-88405000D01*
X126798000Y-88205000D02*
X123218000Y-88205000D01*
X123218000Y-88205000D02*
X123218000Y-88405000D01*
X123218000Y-88405000D02*
X121798000Y-88405000D01*
X121798000Y-88405000D02*
X121798000Y-88205000D01*
X125518000Y-81185000D02*
X127008000Y-81185000D01*
X128318000Y-82495000D02*
X128318000Y-86035000D01*
X121698000Y-86475000D02*
X121698000Y-82495000D01*
X123008000Y-81185000D02*
X124498000Y-81185000D01*
X127008000Y-81185000D02*
G75*
G02X128318000Y-82495000I0J-1310000D01*
G01*
X121698000Y-82495000D02*
G75*
G02X123008000Y-81185000I1310000J0D01*
G01*
X126798000Y-88205000D02*
X126798000Y-88405000D01*
X128218000Y-88405000D02*
X128218000Y-88205000D01*
X128218000Y-88205000D02*
X128318000Y-88205000D01*
X128318000Y-88205000D02*
X128318000Y-87955000D01*
X121798000Y-88205000D02*
X121698000Y-88205000D01*
X121698000Y-88205000D02*
X121698000Y-87515000D01*
X172188000Y-117475000D02*
X171498000Y-117475000D01*
X161568000Y-117475000D02*
X162258000Y-117475000D01*
X171498000Y-115755000D02*
X162258000Y-115755000D01*
X171498000Y-119195000D02*
X171498000Y-115755000D01*
X162258000Y-119195000D02*
X171498000Y-119195000D01*
X162258000Y-115755000D02*
X162258000Y-119195000D01*
X155188000Y-89535000D02*
G75*
G03X155188000Y-89535000I-6100000J0D01*
G01*
X153543000Y-112455000D02*
X142113000Y-112455000D01*
X153543000Y-99635000D02*
X142113000Y-99635000D01*
X157463000Y-111345000D02*
X157463000Y-99745000D01*
X138193000Y-99745000D02*
X138193000Y-112345000D01*
X142828000Y-109045000D02*
X147828000Y-110045000D01*
X147828000Y-110045000D02*
X152828000Y-111045000D01*
X152828000Y-111045000D02*
X152828000Y-104045000D01*
X152828000Y-104045000D02*
X147828000Y-103045000D01*
X142828000Y-102045000D02*
X147828000Y-103045000D01*
X147828000Y-103045000D02*
X147828000Y-110045000D01*
X142828000Y-109045000D02*
X142828000Y-102045000D01*
X153275214Y-102045000D02*
G75*
G03X153275214Y-102045000I-447214J0D01*
G01*
X123468000Y-93345000D02*
X124158000Y-93345000D01*
X134088000Y-93345000D02*
X133398000Y-93345000D01*
X124158000Y-95065000D02*
X133398000Y-95065000D01*
X124158000Y-91625000D02*
X124158000Y-95065000D01*
X133398000Y-91625000D02*
X124158000Y-91625000D01*
X133398000Y-95065000D02*
X133398000Y-91625000D01*
X172188000Y-109855000D02*
X171498000Y-109855000D01*
X161568000Y-109855000D02*
X162258000Y-109855000D01*
X171498000Y-108135000D02*
X162258000Y-108135000D01*
X171498000Y-111575000D02*
X171498000Y-108135000D01*
X162258000Y-111575000D02*
X171498000Y-111575000D01*
X162258000Y-108135000D02*
X162258000Y-111575000D01*
X162258000Y-100515000D02*
X162258000Y-103955000D01*
X162258000Y-103955000D02*
X171498000Y-103955000D01*
X171498000Y-103955000D02*
X171498000Y-100515000D01*
X171498000Y-100515000D02*
X162258000Y-100515000D01*
X161568000Y-102235000D02*
X162258000Y-102235000D01*
X172188000Y-102235000D02*
X171498000Y-102235000D01*
X172188000Y-94615000D02*
X171498000Y-94615000D01*
X161568000Y-94615000D02*
X162258000Y-94615000D01*
X171498000Y-92895000D02*
X162258000Y-92895000D01*
X171498000Y-96335000D02*
X171498000Y-92895000D01*
X162258000Y-96335000D02*
X171498000Y-96335000D01*
X162258000Y-92895000D02*
X162258000Y-96335000D01*
X123468000Y-100965000D02*
X124158000Y-100965000D01*
X134088000Y-100965000D02*
X133398000Y-100965000D01*
X124158000Y-102685000D02*
X133398000Y-102685000D01*
X124158000Y-99245000D02*
X124158000Y-102685000D01*
X133398000Y-99245000D02*
X124158000Y-99245000D01*
X133398000Y-102685000D02*
X133398000Y-99245000D01*
X133398000Y-110305000D02*
X133398000Y-106865000D01*
X133398000Y-106865000D02*
X124158000Y-106865000D01*
X124158000Y-106865000D02*
X124158000Y-110305000D01*
X124158000Y-110305000D02*
X133398000Y-110305000D01*
X134088000Y-108585000D02*
X133398000Y-108585000D01*
X123468000Y-108585000D02*
X124158000Y-108585000D01*
X123468000Y-116205000D02*
X124158000Y-116205000D01*
X134088000Y-116205000D02*
X133398000Y-116205000D01*
X124158000Y-117925000D02*
X133398000Y-117925000D01*
X124158000Y-114485000D02*
X124158000Y-117925000D01*
X133398000Y-114485000D02*
X124158000Y-114485000D01*
X133398000Y-117925000D02*
X133398000Y-114485000D01*
D11*
X129349666Y-128317380D02*
X129349666Y-127317380D01*
X129730619Y-127317380D01*
X129825857Y-127365000D01*
X129873476Y-127412619D01*
X129921095Y-127507857D01*
X129921095Y-127650714D01*
X129873476Y-127745952D01*
X129825857Y-127793571D01*
X129730619Y-127841190D01*
X129349666Y-127841190D01*
X130254428Y-127317380D02*
X130492523Y-128317380D01*
X130683000Y-127603095D01*
X130873476Y-128317380D01*
X131111571Y-127317380D01*
X132063952Y-128317380D02*
X131730619Y-127841190D01*
X131492523Y-128317380D02*
X131492523Y-127317380D01*
X131873476Y-127317380D01*
X131968714Y-127365000D01*
X132016333Y-127412619D01*
X132063952Y-127507857D01*
X132063952Y-127650714D01*
X132016333Y-127745952D01*
X131968714Y-127793571D01*
X131873476Y-127841190D01*
X131492523Y-127841190D01*
X156400380Y-120983333D02*
X157114666Y-120983333D01*
X157257523Y-121030952D01*
X157352761Y-121126190D01*
X157400380Y-121269047D01*
X157400380Y-121364285D01*
X157400380Y-119983333D02*
X157400380Y-120554761D01*
X157400380Y-120269047D02*
X156400380Y-120269047D01*
X156543238Y-120364285D01*
X156638476Y-120459523D01*
X156686095Y-120554761D01*
X139493714Y-130341666D02*
X139969904Y-130341666D01*
X139398476Y-130627380D02*
X139731809Y-129627380D01*
X140065142Y-130627380D01*
X140922285Y-130627380D02*
X140350857Y-130627380D01*
X140636571Y-130627380D02*
X140636571Y-129627380D01*
X140541333Y-129770238D01*
X140446095Y-129865476D01*
X140350857Y-129913095D01*
X124312761Y-89947380D02*
X123979428Y-89471190D01*
X123741333Y-89947380D02*
X123741333Y-88947380D01*
X124122285Y-88947380D01*
X124217523Y-88995000D01*
X124265142Y-89042619D01*
X124312761Y-89137857D01*
X124312761Y-89280714D01*
X124265142Y-89375952D01*
X124217523Y-89423571D01*
X124122285Y-89471190D01*
X123741333Y-89471190D01*
X124598476Y-88947380D02*
X124931809Y-89947380D01*
X125265142Y-88947380D01*
X126122285Y-89947380D02*
X125550857Y-89947380D01*
X125836571Y-89947380D02*
X125836571Y-88947380D01*
X125741333Y-89090238D01*
X125646095Y-89185476D01*
X125550857Y-89233095D01*
X166711333Y-115207380D02*
X166378000Y-114731190D01*
X166139904Y-115207380D02*
X166139904Y-114207380D01*
X166520857Y-114207380D01*
X166616095Y-114255000D01*
X166663714Y-114302619D01*
X166711333Y-114397857D01*
X166711333Y-114540714D01*
X166663714Y-114635952D01*
X166616095Y-114683571D01*
X166520857Y-114731190D01*
X166139904Y-114731190D01*
X167044666Y-114207380D02*
X167711333Y-114207380D01*
X167282761Y-115207380D01*
X148207047Y-82263571D02*
X148349904Y-82311190D01*
X148397523Y-82358809D01*
X148445142Y-82454047D01*
X148445142Y-82596904D01*
X148397523Y-82692142D01*
X148349904Y-82739761D01*
X148254666Y-82787380D01*
X147873714Y-82787380D01*
X147873714Y-81787380D01*
X148207047Y-81787380D01*
X148302285Y-81835000D01*
X148349904Y-81882619D01*
X148397523Y-81977857D01*
X148397523Y-82073095D01*
X148349904Y-82168333D01*
X148302285Y-82215952D01*
X148207047Y-82263571D01*
X147873714Y-82263571D01*
X148778476Y-81787380D02*
X149445142Y-81787380D01*
X148778476Y-82787380D01*
X149445142Y-82787380D01*
X150349904Y-82787380D02*
X149778476Y-82787380D01*
X150064190Y-82787380D02*
X150064190Y-81787380D01*
X149968952Y-81930238D01*
X149873714Y-82025476D01*
X149778476Y-82073095D01*
X144897047Y-87066428D02*
X145658952Y-87066428D01*
X145278000Y-87447380D02*
X145278000Y-86685476D01*
X147066095Y-112997380D02*
X147066095Y-113806904D01*
X147113714Y-113902142D01*
X147161333Y-113949761D01*
X147256571Y-113997380D01*
X147447047Y-113997380D01*
X147542285Y-113949761D01*
X147589904Y-113902142D01*
X147637523Y-113806904D01*
X147637523Y-112997380D01*
X148637523Y-113997380D02*
X148066095Y-113997380D01*
X148351809Y-113997380D02*
X148351809Y-112997380D01*
X148256571Y-113140238D01*
X148161333Y-113235476D01*
X148066095Y-113283095D01*
X128611333Y-96517380D02*
X128278000Y-96041190D01*
X128039904Y-96517380D02*
X128039904Y-95517380D01*
X128420857Y-95517380D01*
X128516095Y-95565000D01*
X128563714Y-95612619D01*
X128611333Y-95707857D01*
X128611333Y-95850714D01*
X128563714Y-95945952D01*
X128516095Y-95993571D01*
X128420857Y-96041190D01*
X128039904Y-96041190D01*
X129182761Y-95945952D02*
X129087523Y-95898333D01*
X129039904Y-95850714D01*
X128992285Y-95755476D01*
X128992285Y-95707857D01*
X129039904Y-95612619D01*
X129087523Y-95565000D01*
X129182761Y-95517380D01*
X129373238Y-95517380D01*
X129468476Y-95565000D01*
X129516095Y-95612619D01*
X129563714Y-95707857D01*
X129563714Y-95755476D01*
X129516095Y-95850714D01*
X129468476Y-95898333D01*
X129373238Y-95945952D01*
X129182761Y-95945952D01*
X129087523Y-95993571D01*
X129039904Y-96041190D01*
X128992285Y-96136428D01*
X128992285Y-96326904D01*
X129039904Y-96422142D01*
X129087523Y-96469761D01*
X129182761Y-96517380D01*
X129373238Y-96517380D01*
X129468476Y-96469761D01*
X129516095Y-96422142D01*
X129563714Y-96326904D01*
X129563714Y-96136428D01*
X129516095Y-96041190D01*
X129468476Y-95993571D01*
X129373238Y-95945952D01*
X166711333Y-107587380D02*
X166378000Y-107111190D01*
X166139904Y-107587380D02*
X166139904Y-106587380D01*
X166520857Y-106587380D01*
X166616095Y-106635000D01*
X166663714Y-106682619D01*
X166711333Y-106777857D01*
X166711333Y-106920714D01*
X166663714Y-107015952D01*
X166616095Y-107063571D01*
X166520857Y-107111190D01*
X166139904Y-107111190D01*
X167568476Y-106587380D02*
X167378000Y-106587380D01*
X167282761Y-106635000D01*
X167235142Y-106682619D01*
X167139904Y-106825476D01*
X167092285Y-107015952D01*
X167092285Y-107396904D01*
X167139904Y-107492142D01*
X167187523Y-107539761D01*
X167282761Y-107587380D01*
X167473238Y-107587380D01*
X167568476Y-107539761D01*
X167616095Y-107492142D01*
X167663714Y-107396904D01*
X167663714Y-107158809D01*
X167616095Y-107063571D01*
X167568476Y-107015952D01*
X167473238Y-106968333D01*
X167282761Y-106968333D01*
X167187523Y-107015952D01*
X167139904Y-107063571D01*
X167092285Y-107158809D01*
X166711333Y-99967380D02*
X166378000Y-99491190D01*
X166139904Y-99967380D02*
X166139904Y-98967380D01*
X166520857Y-98967380D01*
X166616095Y-99015000D01*
X166663714Y-99062619D01*
X166711333Y-99157857D01*
X166711333Y-99300714D01*
X166663714Y-99395952D01*
X166616095Y-99443571D01*
X166520857Y-99491190D01*
X166139904Y-99491190D01*
X167616095Y-98967380D02*
X167139904Y-98967380D01*
X167092285Y-99443571D01*
X167139904Y-99395952D01*
X167235142Y-99348333D01*
X167473238Y-99348333D01*
X167568476Y-99395952D01*
X167616095Y-99443571D01*
X167663714Y-99538809D01*
X167663714Y-99776904D01*
X167616095Y-99872142D01*
X167568476Y-99919761D01*
X167473238Y-99967380D01*
X167235142Y-99967380D01*
X167139904Y-99919761D01*
X167092285Y-99872142D01*
X166711333Y-92347380D02*
X166378000Y-91871190D01*
X166139904Y-92347380D02*
X166139904Y-91347380D01*
X166520857Y-91347380D01*
X166616095Y-91395000D01*
X166663714Y-91442619D01*
X166711333Y-91537857D01*
X166711333Y-91680714D01*
X166663714Y-91775952D01*
X166616095Y-91823571D01*
X166520857Y-91871190D01*
X166139904Y-91871190D01*
X167568476Y-91680714D02*
X167568476Y-92347380D01*
X167330380Y-91299761D02*
X167092285Y-92014047D01*
X167711333Y-92014047D01*
X128611333Y-104137380D02*
X128278000Y-103661190D01*
X128039904Y-104137380D02*
X128039904Y-103137380D01*
X128420857Y-103137380D01*
X128516095Y-103185000D01*
X128563714Y-103232619D01*
X128611333Y-103327857D01*
X128611333Y-103470714D01*
X128563714Y-103565952D01*
X128516095Y-103613571D01*
X128420857Y-103661190D01*
X128039904Y-103661190D01*
X128944666Y-103137380D02*
X129563714Y-103137380D01*
X129230380Y-103518333D01*
X129373238Y-103518333D01*
X129468476Y-103565952D01*
X129516095Y-103613571D01*
X129563714Y-103708809D01*
X129563714Y-103946904D01*
X129516095Y-104042142D01*
X129468476Y-104089761D01*
X129373238Y-104137380D01*
X129087523Y-104137380D01*
X128992285Y-104089761D01*
X128944666Y-104042142D01*
X128611333Y-111757380D02*
X128278000Y-111281190D01*
X128039904Y-111757380D02*
X128039904Y-110757380D01*
X128420857Y-110757380D01*
X128516095Y-110805000D01*
X128563714Y-110852619D01*
X128611333Y-110947857D01*
X128611333Y-111090714D01*
X128563714Y-111185952D01*
X128516095Y-111233571D01*
X128420857Y-111281190D01*
X128039904Y-111281190D01*
X128992285Y-110852619D02*
X129039904Y-110805000D01*
X129135142Y-110757380D01*
X129373238Y-110757380D01*
X129468476Y-110805000D01*
X129516095Y-110852619D01*
X129563714Y-110947857D01*
X129563714Y-111043095D01*
X129516095Y-111185952D01*
X128944666Y-111757380D01*
X129563714Y-111757380D01*
X128611333Y-119377380D02*
X128278000Y-118901190D01*
X128039904Y-119377380D02*
X128039904Y-118377380D01*
X128420857Y-118377380D01*
X128516095Y-118425000D01*
X128563714Y-118472619D01*
X128611333Y-118567857D01*
X128611333Y-118710714D01*
X128563714Y-118805952D01*
X128516095Y-118853571D01*
X128420857Y-118901190D01*
X128039904Y-118901190D01*
X129563714Y-119377380D02*
X128992285Y-119377380D01*
X129278000Y-119377380D02*
X129278000Y-118377380D01*
X129182761Y-118520238D01*
X129087523Y-118615476D01*
X128992285Y-118663095D01*
M02*
