G04 #@! TF.GenerationSoftware,KiCad,Pcbnew,(5.1.5)-3*
G04 #@! TF.CreationDate,2022-01-09T12:48:11+00:00*
G04 #@! TF.ProjectId,MorseSerialArduinoShield,4d6f7273-6553-4657-9269-616c41726475,rev?*
G04 #@! TF.SameCoordinates,Original*
G04 #@! TF.FileFunction,Soldermask,Top*
G04 #@! TF.FilePolarity,Negative*
%FSLAX46Y46*%
G04 Gerber Fmt 4.6, Leading zero omitted, Abs format (unit mm)*
G04 Created by KiCad (PCBNEW (5.1.5)-3) date 2022-01-09 12:48:11*
%MOMM*%
%LPD*%
G04 APERTURE LIST*
%ADD10O,1.700000X1.700000*%
%ADD11R,1.700000X1.700000*%
%ADD12O,1.600000X1.600000*%
%ADD13R,1.600000X1.600000*%
%ADD14C,1.550000*%
%ADD15R,1.550000X1.550000*%
%ADD16C,1.600000*%
%ADD17C,2.000000*%
%ADD18R,2.000000X2.000000*%
%ADD19R,2.524000X1.524000*%
%ADD20O,2.524000X1.524000*%
G04 APERTURE END LIST*
D10*
X130683000Y-122555000D03*
D11*
X130683000Y-125095000D03*
D10*
X141478000Y-120650000D03*
X144018000Y-120650000D03*
X146558000Y-120650000D03*
X149098000Y-120650000D03*
X151638000Y-120650000D03*
D11*
X154178000Y-120650000D03*
D12*
X129798000Y-78105000D03*
X132338000Y-78105000D03*
D13*
X138938000Y-126365000D03*
D12*
X169418000Y-78105000D03*
X141478000Y-126365000D03*
X166878000Y-78105000D03*
X144018000Y-126365000D03*
X164338000Y-78105000D03*
X146558000Y-126365000D03*
X161798000Y-78105000D03*
X149098000Y-126365000D03*
X159258000Y-78105000D03*
X151638000Y-126365000D03*
X156718000Y-78105000D03*
X154178000Y-126365000D03*
X152658000Y-78105000D03*
X156718000Y-126365000D03*
X150118000Y-78105000D03*
X161798000Y-126365000D03*
X147578000Y-78105000D03*
X164338000Y-126365000D03*
X145038000Y-78105000D03*
X166878000Y-126365000D03*
X142498000Y-78105000D03*
X169418000Y-126365000D03*
X139958000Y-78105000D03*
X171958000Y-126365000D03*
X137418000Y-78105000D03*
X174498000Y-126365000D03*
X134878000Y-78105000D03*
X174498000Y-78105000D03*
X171958000Y-78105000D03*
D14*
X125008000Y-81995000D03*
D15*
X127508000Y-86995000D03*
D14*
X122508000Y-86995000D03*
D12*
X173228000Y-117475000D03*
D16*
X160528000Y-117475000D03*
D17*
X152888000Y-89535000D03*
D18*
X145288000Y-89535000D03*
D19*
X155448000Y-111125000D03*
D20*
X155448000Y-108585000D03*
X155448000Y-106045000D03*
X155448000Y-103505000D03*
X155448000Y-100965000D03*
X140208000Y-100965000D03*
X140208000Y-103505000D03*
X140208000Y-106045000D03*
X140208000Y-108585000D03*
X140208000Y-111125000D03*
D12*
X122428000Y-93345000D03*
D16*
X135128000Y-93345000D03*
D12*
X173228000Y-109855000D03*
D16*
X160528000Y-109855000D03*
X160528000Y-102235000D03*
D12*
X173228000Y-102235000D03*
X173228000Y-94615000D03*
D16*
X160528000Y-94615000D03*
D12*
X122428000Y-100965000D03*
D16*
X135128000Y-100965000D03*
X135128000Y-108585000D03*
D12*
X122428000Y-108585000D03*
X122428000Y-116205000D03*
D16*
X135128000Y-116205000D03*
M02*
